<svg width="236" height="236" viewBox="0 0 236 236" fill="none" xmlns="http://www.w3.org/2000/svg">
<ellipse cx="117.631" cy="117.755" rx="117.631" ry="117.755" fill="url(#paint0_linear_348_1862)"/>
<path d="M225.177 118.627C225.177 178.087 177.026 226.287 117.631 226.287C58.2351 226.287 10.0846 178.087 10.0846 118.627C10.0846 59.1674 58.2351 10.9668 117.631 10.9668C177.026 10.9668 225.177 59.1674 225.177 118.627Z" stroke="#D5BF4C"/>
<path d="M214.721 118.627C214.721 172.306 171.252 215.82 117.631 215.82C64.01 215.82 20.5408 172.306 20.5408 118.627C20.5408 64.9484 64.01 21.4341 117.631 21.4341C171.252 21.4341 214.721 64.9484 214.721 118.627Z" stroke="#D5BF4C"/>
<path d="M204.265 118.628C204.265 166.526 165.477 205.354 117.631 205.354C69.7848 205.354 30.9969 166.526 30.9969 118.628C30.9969 70.7299 69.7848 31.9019 117.631 31.9019C165.477 31.9019 204.265 70.7299 204.265 118.628Z" stroke="#D5BF4C"/>
<path d="M193.809 118.628C193.809 160.745 159.702 194.886 117.631 194.886C75.5595 194.886 41.453 160.745 41.453 118.628C41.453 76.5104 75.5595 42.3687 117.631 42.3687C159.702 42.3687 193.809 76.5104 193.809 118.628Z" stroke="#D5BF4C"/>
<path d="M183.353 118.627C183.353 154.963 153.927 184.419 117.631 184.419C81.3341 184.419 51.9089 154.963 51.9089 118.627C51.9089 82.2909 81.3341 52.8354 117.631 52.8354C153.927 52.8354 183.353 82.2909 183.353 118.627Z" stroke="#D5BF4C"/>
<path d="M172.897 118.627C172.897 149.182 148.153 173.951 117.631 173.951C87.1089 173.951 62.3651 149.182 62.3651 118.627C62.3651 88.0714 87.1089 63.3022 117.631 63.3022C148.153 63.3022 172.897 88.0714 172.897 118.627Z" stroke="#D5BF4C"/>
<path d="M162.441 118.628C162.441 143.402 142.378 163.485 117.631 163.485C92.8838 163.485 72.8213 143.402 72.8213 118.628C72.8213 93.8529 92.8838 73.77 117.631 73.77C142.378 73.77 162.441 93.8529 162.441 118.628Z" stroke="#D5BF4C"/>
<path d="M151.984 118.628C151.984 137.621 136.603 153.018 117.631 153.018C98.6585 153.018 83.2773 137.621 83.2773 118.628C83.2773 99.6339 98.6585 84.2373 117.631 84.2373C136.603 84.2373 151.984 99.6339 151.984 118.628Z" stroke="#D5BF4C"/>
<ellipse cx="117.631" cy="118.627" rx="24.3975" ry="24.4233" fill="url(#paint1_linear_348_1862)"/>
<ellipse cx="117.631" cy="118.627" rx="10.4561" ry="10.4671" fill="#303030"/>
<rect y="-0.70748" width="26.8976" height="4.2308" rx="2.1154" transform="matrix(-0.706733 -0.70748 0.706733 -0.70748 126.141 129.138)" fill="#BABABA" stroke="#303030"/>
<path d="M86.0719 184.552C84.7719 184.552 83.6279 184.3 82.6399 183.798C81.6519 183.278 80.8892 182.558 80.3519 181.64C79.8146 180.721 79.5459 179.655 79.5459 178.442V172.02C79.5459 170.806 79.8146 169.74 80.3519 168.822C80.8892 167.903 81.6519 167.192 82.6399 166.69C83.6279 166.187 84.7719 165.936 86.0719 165.936C87.3546 165.936 88.4899 166.178 89.4779 166.664C90.4659 167.149 91.2286 167.834 91.7659 168.718C92.3032 169.602 92.5719 170.624 92.5719 171.786C92.5719 171.872 92.5372 171.95 92.4679 172.02C92.4159 172.072 92.3466 172.098 92.2599 172.098L89.8679 172.228C89.6599 172.228 89.5559 172.132 89.5559 171.942C89.5559 170.919 89.2352 170.096 88.5939 169.472C87.9699 168.848 87.1292 168.536 86.0719 168.536C85.0146 168.536 84.1652 168.848 83.5239 169.472C82.8826 170.096 82.5619 170.919 82.5619 171.942V178.572C82.5619 179.577 82.8826 180.392 83.5239 181.016C84.1652 181.64 85.0146 181.952 86.0719 181.952C87.1292 181.952 87.9699 181.648 88.5939 181.042C89.2352 180.418 89.5559 179.594 89.5559 178.572C89.5559 178.381 89.6599 178.286 89.8679 178.286L92.2599 178.39C92.3466 178.39 92.4159 178.416 92.4679 178.468C92.5372 178.52 92.5719 178.58 92.5719 178.65C92.5719 179.828 92.3032 180.868 91.7659 181.77C91.2286 182.654 90.4659 183.338 89.4779 183.824C88.4899 184.309 87.3546 184.552 86.0719 184.552ZM106.024 184.344C105.851 184.344 105.73 184.266 105.66 184.11L102.228 176.622C102.194 176.552 102.142 176.518 102.072 176.518H98.9523C98.8656 176.518 98.8223 176.561 98.8223 176.648V184.032C98.8223 184.118 98.7876 184.196 98.7183 184.266C98.6663 184.318 98.5969 184.344 98.5103 184.344H96.1183C96.0316 184.344 95.9536 184.318 95.8843 184.266C95.8323 184.196 95.8063 184.118 95.8063 184.032V166.456C95.8063 166.369 95.8323 166.3 95.8843 166.248C95.9536 166.178 96.0316 166.144 96.1183 166.144H103.268C104.326 166.144 105.262 166.369 106.076 166.82C106.891 167.253 107.524 167.877 107.974 168.692C108.425 169.489 108.65 170.408 108.65 171.448C108.65 172.644 108.338 173.666 107.714 174.516C107.108 175.348 106.258 175.928 105.166 176.258C105.132 176.258 105.106 176.275 105.088 176.31C105.071 176.344 105.071 176.379 105.088 176.414L108.754 183.98C108.789 184.049 108.806 184.101 108.806 184.136C108.806 184.274 108.711 184.344 108.52 184.344H106.024ZM98.9523 168.744C98.8656 168.744 98.8223 168.787 98.8223 168.874V174.048C98.8223 174.134 98.8656 174.178 98.9523 174.178H102.852C103.684 174.178 104.352 173.935 104.854 173.45C105.374 172.947 105.634 172.288 105.634 171.474C105.634 170.659 105.374 170 104.854 169.498C104.352 168.995 103.684 168.744 102.852 168.744H98.9523ZM123.645 184.344C123.472 184.344 123.359 184.257 123.307 184.084L122.449 181.302C122.414 181.232 122.371 181.198 122.319 181.198H115.455C115.403 181.198 115.36 181.232 115.325 181.302L114.467 184.084C114.415 184.257 114.302 184.344 114.129 184.344H111.529C111.425 184.344 111.347 184.318 111.295 184.266C111.243 184.196 111.234 184.101 111.269 183.98L116.911 166.404C116.963 166.23 117.076 166.144 117.249 166.144H120.499C120.672 166.144 120.785 166.23 120.837 166.404L126.505 183.98C126.522 184.014 126.531 184.058 126.531 184.11C126.531 184.266 126.436 184.344 126.245 184.344H123.645ZM116.131 178.676C116.114 178.78 116.148 178.832 116.235 178.832H121.513C121.617 178.832 121.652 178.78 121.617 178.676L118.939 169.966C118.922 169.896 118.896 169.862 118.861 169.862C118.826 169.862 118.8 169.896 118.783 169.966L116.131 178.676ZM134.03 184.552C132.678 184.552 131.499 184.335 130.494 183.902C129.489 183.468 128.709 182.862 128.154 182.082C127.617 181.302 127.348 180.383 127.348 179.326V178.676C127.348 178.589 127.374 178.52 127.426 178.468C127.495 178.398 127.573 178.364 127.66 178.364H129.974C130.061 178.364 130.13 178.398 130.182 178.468C130.251 178.52 130.286 178.589 130.286 178.676V179.17C130.286 179.967 130.641 180.634 131.352 181.172C132.063 181.692 133.033 181.952 134.264 181.952C135.321 181.952 136.119 181.726 136.656 181.276C137.193 180.825 137.462 180.244 137.462 179.534C137.462 179.048 137.315 178.641 137.02 178.312C136.725 177.965 136.301 177.653 135.746 177.376C135.209 177.098 134.394 176.752 133.302 176.336C132.071 175.885 131.075 175.46 130.312 175.062C129.549 174.663 128.908 174.126 128.388 173.45C127.885 172.756 127.634 171.898 127.634 170.876C127.634 169.35 128.189 168.146 129.298 167.262C130.407 166.378 131.889 165.936 133.744 165.936C135.044 165.936 136.188 166.161 137.176 166.612C138.181 167.062 138.961 167.695 139.516 168.51C140.071 169.307 140.348 170.234 140.348 171.292V171.734C140.348 171.82 140.313 171.898 140.244 171.968C140.192 172.02 140.123 172.046 140.036 172.046H137.696C137.609 172.046 137.531 172.02 137.462 171.968C137.41 171.898 137.384 171.82 137.384 171.734V171.448C137.384 170.633 137.046 169.948 136.37 169.394C135.711 168.822 134.793 168.536 133.614 168.536C132.661 168.536 131.915 168.735 131.378 169.134C130.858 169.532 130.598 170.096 130.598 170.824C130.598 171.344 130.737 171.768 131.014 172.098C131.291 172.427 131.707 172.73 132.262 173.008C132.817 173.268 133.675 173.606 134.836 174.022C136.067 174.49 137.046 174.914 137.774 175.296C138.519 175.677 139.152 176.214 139.672 176.908C140.209 177.584 140.478 178.433 140.478 179.456C140.478 181.016 139.897 182.255 138.736 183.174C137.592 184.092 136.023 184.552 134.03 184.552ZM153.421 166.456C153.421 166.369 153.447 166.3 153.499 166.248C153.569 166.178 153.647 166.144 153.733 166.144H156.125C156.212 166.144 156.281 166.178 156.333 166.248C156.403 166.3 156.437 166.369 156.437 166.456V184.032C156.437 184.118 156.403 184.196 156.333 184.266C156.281 184.318 156.212 184.344 156.125 184.344H153.733C153.647 184.344 153.569 184.318 153.499 184.266C153.447 184.196 153.421 184.118 153.421 184.032V176.596C153.421 176.509 153.378 176.466 153.291 176.466H146.661C146.575 176.466 146.531 176.509 146.531 176.596V184.032C146.531 184.118 146.497 184.196 146.427 184.266C146.375 184.318 146.306 184.344 146.219 184.344H143.827C143.741 184.344 143.663 184.318 143.593 184.266C143.541 184.196 143.515 184.118 143.515 184.032V166.456C143.515 166.369 143.541 166.3 143.593 166.248C143.663 166.178 143.741 166.144 143.827 166.144H146.219C146.306 166.144 146.375 166.178 146.427 166.248C146.497 166.3 146.531 166.369 146.531 166.456V173.736C146.531 173.822 146.575 173.866 146.661 173.866H153.291C153.378 173.866 153.421 173.822 153.421 173.736V166.456Z" fill="#303030"/>
<defs>
<linearGradient id="paint0_linear_348_1862" x1="0" y1="117.755" x2="235.262" y2="117.755" gradientUnits="userSpaceOnUse">
<stop stop-color="#EED75B"/>
<stop offset="1" stop-color="#C5A708"/>
</linearGradient>
<linearGradient id="paint1_linear_348_1862" x1="93.2334" y1="118.628" x2="142.028" y2="118.628" gradientUnits="userSpaceOnUse">
<stop stop-color="#EED75B"/>
<stop offset="1" stop-color="#C5A708"/>
</linearGradient>
</defs>
</svg>
