<svg width="258" height="262" viewBox="0 0 258 262" fill="none" xmlns="http://www.w3.org/2000/svg">
<g filter="url(#filter0_d_351_497)">
<circle cx="5.65473" cy="5.65473" r="5.65473" transform="matrix(0.706733 0.70748 -0.706733 0.70748 213.613 34.3247)" fill="#A8B0B2"/>
<circle cx="5.65473" cy="5.65473" r="5.65473" transform="matrix(0.706733 0.70748 -0.706733 0.70748 45.1501 202.965)" fill="#A8B0B2"/>
<circle cx="5.65473" cy="5.65473" r="5.65473" transform="matrix(0.706733 0.70748 -0.706733 0.70748 212.586 201.937)" fill="#A8B0B2"/>
<circle cx="5.65473" cy="5.65473" r="5.65473" transform="matrix(0.706733 0.70748 -0.706733 0.70748 45.1501 34.3247)" fill="#A8B0B2"/>
<circle cx="5.65473" cy="5.65473" r="5.65473" transform="matrix(0.706733 0.70748 -0.706733 0.70748 129.114 0)" fill="#A8B0B2"/>
<circle cx="5.65473" cy="5.65473" r="5.65473" transform="matrix(0.706733 0.70748 -0.706733 0.70748 129.114 237.624)" fill="#A8B0B2"/>
<circle cx="5.65473" cy="5.65473" r="5.65473" transform="matrix(0.706733 0.70748 -0.706733 0.70748 9.99274 119.248)" fill="#A8B0B2"/>
<circle cx="5.65473" cy="5.65473" r="5.65473" transform="matrix(0.706733 0.70748 -0.706733 0.70748 247.366 119.248)" fill="#A8B0B2"/>
<path d="M244.12 126.36C244.12 189.926 192.446 241.474 128.679 241.474C64.913 241.474 13.2388 189.926 13.2388 126.36C13.2388 62.7951 64.913 11.2466 128.679 11.2466C192.446 11.2466 244.12 62.7951 244.12 126.36Z" fill="#F9FAFB" stroke="#9CABB0" stroke-width="8"/>
<path d="M221.928 126.813C221.928 178.381 180.17 220.169 128.679 220.169C77.1886 220.169 35.431 178.381 35.431 126.813C35.431 75.2446 77.1886 33.4565 128.679 33.4565C180.17 33.4565 221.928 75.2446 221.928 126.813Z" stroke="#606060" stroke-width="18"/>
<path d="M104.078 120.597C104.078 120.683 104.044 120.761 103.974 120.831C103.922 120.883 103.853 120.909 103.766 120.909H94.9265C94.8398 120.909 94.7965 120.952 94.7965 121.039V125.901C94.7965 125.987 94.8398 126.031 94.9265 126.031H100.88C100.967 126.031 101.036 126.065 101.088 126.135C101.158 126.187 101.192 126.256 101.192 126.343V128.319C101.192 128.405 101.158 128.483 101.088 128.553C101.036 128.605 100.967 128.631 100.88 128.631H94.9265C94.8398 128.631 94.7965 128.674 94.7965 128.761V136.197C94.7965 136.283 94.7618 136.361 94.6925 136.431C94.6405 136.483 94.5711 136.509 94.4845 136.509H92.0925C92.0058 136.509 91.9278 136.483 91.8585 136.431C91.8065 136.361 91.7805 136.283 91.7805 136.197V118.621C91.7805 118.534 91.8065 118.465 91.8585 118.413C91.9278 118.343 92.0058 118.309 92.0925 118.309H103.766C103.853 118.309 103.922 118.343 103.974 118.413C104.044 118.465 104.078 118.534 104.078 118.621V120.597ZM106.743 136.509C106.656 136.509 106.578 136.483 106.509 136.431C106.457 136.361 106.431 136.283 106.431 136.197V118.621C106.431 118.534 106.457 118.465 106.509 118.413C106.578 118.343 106.656 118.309 106.743 118.309H109.135C109.222 118.309 109.291 118.343 109.343 118.413C109.412 118.465 109.447 118.534 109.447 118.621V133.779C109.447 133.865 109.49 133.909 109.577 133.909H118.287C118.374 133.909 118.443 133.943 118.495 134.013C118.564 134.065 118.599 134.134 118.599 134.221V136.197C118.599 136.283 118.564 136.361 118.495 136.431C118.443 136.483 118.374 136.509 118.287 136.509H106.743ZM127.294 136.769C125.994 136.769 124.841 136.509 123.836 135.989C122.831 135.451 122.051 134.697 121.496 133.727C120.959 132.756 120.69 131.638 120.69 130.373V124.445C120.69 123.197 120.967 122.096 121.522 121.143C122.077 120.172 122.848 119.427 123.836 118.907C124.841 118.369 125.994 118.101 127.294 118.101C128.611 118.101 129.764 118.369 130.752 118.907C131.757 119.427 132.537 120.172 133.092 121.143C133.647 122.096 133.924 123.197 133.924 124.445V130.373C133.924 131.638 133.647 132.756 133.092 133.727C132.537 134.697 131.757 135.451 130.752 135.989C129.764 136.509 128.611 136.769 127.294 136.769ZM127.294 134.169C128.386 134.169 129.261 133.831 129.92 133.155C130.579 132.479 130.908 131.586 130.908 130.477V124.419C130.908 123.292 130.579 122.391 129.92 121.715C129.261 121.039 128.386 120.701 127.294 120.701C126.219 120.701 125.353 121.039 124.694 121.715C124.035 122.391 123.706 123.292 123.706 124.419V130.477C123.706 131.586 124.035 132.479 124.694 133.155C125.353 133.831 126.219 134.169 127.294 134.169ZM143.442 136.769C142.142 136.769 140.99 136.509 139.984 135.989C138.979 135.451 138.199 134.697 137.644 133.727C137.107 132.756 136.838 131.638 136.838 130.373V124.445C136.838 123.197 137.116 122.096 137.67 121.143C138.225 120.172 138.996 119.427 139.984 118.907C140.99 118.369 142.142 118.101 143.442 118.101C144.76 118.101 145.912 118.369 146.9 118.907C147.906 119.427 148.686 120.172 149.24 121.143C149.795 122.096 150.072 123.197 150.072 124.445V130.373C150.072 131.638 149.795 132.756 149.24 133.727C148.686 134.697 147.906 135.451 146.9 135.989C145.912 136.509 144.76 136.769 143.442 136.769ZM143.442 134.169C144.534 134.169 145.41 133.831 146.068 133.155C146.727 132.479 147.056 131.586 147.056 130.477V124.419C147.056 123.292 146.727 122.391 146.068 121.715C145.41 121.039 144.534 120.701 143.442 120.701C142.368 120.701 141.501 121.039 140.842 121.715C140.184 122.391 139.854 123.292 139.854 124.419V130.477C139.854 131.586 140.184 132.479 140.842 133.155C141.501 133.831 142.368 134.169 143.442 134.169ZM163.647 136.509C163.474 136.509 163.352 136.431 163.283 136.275L159.851 128.787C159.816 128.717 159.764 128.683 159.695 128.683H156.575C156.488 128.683 156.445 128.726 156.445 128.813V136.197C156.445 136.283 156.41 136.361 156.341 136.431C156.289 136.483 156.22 136.509 156.133 136.509H153.741C153.654 136.509 153.576 136.483 153.507 136.431C153.455 136.361 153.429 136.283 153.429 136.197V118.621C153.429 118.534 153.455 118.465 153.507 118.413C153.576 118.343 153.654 118.309 153.741 118.309H160.891C161.948 118.309 162.884 118.534 163.699 118.985C164.514 119.418 165.146 120.042 165.597 120.857C166.048 121.654 166.273 122.573 166.273 123.613C166.273 124.809 165.961 125.831 165.337 126.681C164.73 127.513 163.881 128.093 162.789 128.423C162.754 128.423 162.728 128.44 162.711 128.475C162.694 128.509 162.694 128.544 162.711 128.579L166.377 136.145C166.412 136.214 166.429 136.266 166.429 136.301C166.429 136.439 166.334 136.509 166.143 136.509H163.647ZM156.575 120.909C156.488 120.909 156.445 120.952 156.445 121.039V126.213C156.445 126.299 156.488 126.343 156.575 126.343H160.475C161.307 126.343 161.974 126.1 162.477 125.615C162.997 125.112 163.257 124.453 163.257 123.639C163.257 122.824 162.997 122.165 162.477 121.663C161.974 121.16 161.307 120.909 160.475 120.909H156.575Z" fill="#303030"/>
</g>
<defs>
<filter id="filter0_d_351_497" x="0.341003" y="2.34326" width="256.677" height="258.939" filterUnits="userSpaceOnUse" color-interpolation-filters="sRGB">
<feFlood flood-opacity="0" result="BackgroundImageFix"/>
<feColorMatrix in="SourceAlpha" type="matrix" values="0 0 0 0 0 0 0 0 0 0 0 0 0 0 0 0 0 0 127 0" result="hardAlpha"/>
<feOffset dy="6"/>
<feGaussianBlur stdDeviation="2"/>
<feComposite in2="hardAlpha" operator="out"/>
<feColorMatrix type="matrix" values="0 0 0 0 0 0 0 0 0 0 0 0 0 0 0 0 0 0 0.25 0"/>
<feBlend mode="normal" in2="BackgroundImageFix" result="effect1_dropShadow_351_497"/>
<feBlend mode="normal" in="SourceGraphic" in2="effect1_dropShadow_351_497" result="shape"/>
</filter>
</defs>
</svg>
