<svg width="213" height="213" viewBox="0 0 213 213" fill="none" xmlns="http://www.w3.org/2000/svg">
<ellipse cx="106.321" cy="106.433" rx="106.321" ry="106.433" fill="url(#paint0_linear_348_1834)"/>
<path d="M203.478 107.221C203.478 160.937 159.979 204.482 106.321 204.482C52.6625 204.482 9.16309 160.937 9.16309 107.221C9.16309 53.505 52.6625 9.96045 106.321 9.96045C159.979 9.96045 203.478 53.505 203.478 107.221Z" stroke="#D5BF4C"/>
<path d="M194.027 107.222C194.027 155.713 154.759 195.022 106.321 195.022C57.8819 195.022 18.6138 155.713 18.6138 107.222C18.6138 58.7307 57.8819 19.4219 106.321 19.4219C154.759 19.4219 194.027 58.7307 194.027 107.222Z" stroke="#D5BF4C"/>
<path d="M184.577 107.222C184.577 150.488 149.54 185.561 106.321 185.561C63.1016 185.561 28.0647 150.488 28.0647 107.222C28.0647 63.9555 63.1016 28.8823 106.321 28.8823C149.54 28.8823 184.577 63.9555 184.577 107.222Z" stroke="#D5BF4C"/>
<path d="M175.126 107.221C175.126 145.262 144.32 176.099 106.321 176.099C68.3209 176.099 37.5153 145.262 37.5153 107.221C37.5153 69.1797 68.3209 38.3423 106.321 38.3423C144.32 38.3423 175.126 69.1797 175.126 107.221Z" stroke="#D5BF4C"/>
<path d="M165.675 107.222C165.675 140.038 139.101 166.639 106.321 166.639C73.5405 166.639 46.9661 140.038 46.9661 107.222C46.9661 74.4055 73.5405 47.8037 106.321 47.8037C139.101 47.8037 165.675 74.4055 165.675 107.222Z" stroke="#D5BF4C"/>
<path d="M156.224 107.221C156.224 134.812 133.881 157.178 106.321 157.178C78.76 157.178 56.4167 134.812 56.4167 107.221C56.4167 79.6302 78.76 57.2642 106.321 57.2642C133.881 57.2642 156.224 79.6302 156.224 107.221Z" stroke="#D5BF4C"/>
<path d="M146.774 107.221C146.774 129.588 128.662 147.718 106.321 147.718C83.9794 147.718 65.8674 129.588 65.8674 107.221C65.8674 84.8554 83.9794 66.7251 106.321 66.7251C128.662 66.7251 146.774 84.8554 146.774 107.221Z" stroke="#D5BF4C"/>
<path d="M137.323 107.221C137.323 124.362 123.442 138.257 106.321 138.257C89.199 138.257 75.3182 124.362 75.3182 107.221C75.3182 90.0802 89.199 76.1855 106.321 76.1855C123.442 76.1855 137.323 90.0802 137.323 107.221Z" stroke="#D5BF4C"/>
<ellipse cx="106.321" cy="107.221" rx="22.0517" ry="22.075" fill="url(#paint1_linear_348_1834)"/>
<ellipse cx="106.321" cy="107.221" rx="9.45072" ry="9.4607" fill="#303030"/>
<rect x="0.706733" width="24.2152" height="3.72786" rx="1.86393" transform="matrix(0.706733 -0.70748 0.706733 0.70748 95.947 114.968)" fill="#BABABA" stroke="#303030"/>
<path d="M78.3706 151.231C78.3706 151.144 78.3966 151.075 78.4486 151.023C78.5179 150.953 78.5959 150.919 78.6826 150.919H81.0746C81.1613 150.919 81.2306 150.953 81.2826 151.023C81.3519 151.075 81.3866 151.144 81.3866 151.231V168.807C81.3866 168.893 81.3519 168.971 81.2826 169.041C81.2306 169.093 81.1613 169.119 81.0746 169.119H78.6826C78.5959 169.119 78.5179 169.093 78.4486 169.041C78.3966 168.971 78.3706 168.893 78.3706 168.807V161.371C78.3706 161.284 78.3273 161.241 78.2406 161.241H71.6106C71.5239 161.241 71.4806 161.284 71.4806 161.371V168.807C71.4806 168.893 71.4459 168.971 71.3766 169.041C71.3246 169.093 71.2553 169.119 71.1686 169.119H68.7766C68.6899 169.119 68.6119 169.093 68.5426 169.041C68.4906 168.971 68.4646 168.893 68.4646 168.807V151.231C68.4646 151.144 68.4906 151.075 68.5426 151.023C68.6119 150.953 68.6899 150.919 68.7766 150.919H71.1686C71.2553 150.919 71.3246 150.953 71.3766 151.023C71.4459 151.075 71.4806 151.144 71.4806 151.231V158.511C71.4806 158.597 71.5239 158.641 71.6106 158.641H78.2406C78.3273 158.641 78.3706 158.597 78.3706 158.511V151.231ZM85.3313 169.119C85.2446 169.119 85.1666 169.093 85.0973 169.041C85.0453 168.971 85.0193 168.893 85.0193 168.807V151.231C85.0193 151.144 85.0453 151.075 85.0973 151.023C85.1666 150.953 85.2446 150.919 85.3313 150.919H87.7233C87.81 150.919 87.8793 150.953 87.9313 151.023C88.0006 151.075 88.0353 151.144 88.0353 151.231V168.807C88.0353 168.893 88.0006 168.971 87.9313 169.041C87.8793 169.093 87.81 169.119 87.7233 169.119H85.3313ZM91.07 162.593C90.9833 162.593 90.9053 162.567 90.836 162.515C90.784 162.445 90.758 162.367 90.758 162.281V160.305C90.758 160.218 90.784 160.149 90.836 160.097C90.9053 160.027 90.9833 159.993 91.07 159.993H99.26C99.3467 159.993 99.416 160.027 99.468 160.097C99.5373 160.149 99.572 160.218 99.572 160.305V162.281C99.572 162.367 99.5373 162.445 99.468 162.515C99.416 162.567 99.3467 162.593 99.26 162.593H91.07ZM112.242 151.231C112.242 151.144 112.268 151.075 112.32 151.023C112.389 150.953 112.467 150.919 112.554 150.919H114.946C115.032 150.919 115.102 150.953 115.154 151.023C115.223 151.075 115.258 151.144 115.258 151.231V168.807C115.258 168.893 115.223 168.971 115.154 169.041C115.102 169.093 115.032 169.119 114.946 169.119H112.554C112.467 169.119 112.389 169.093 112.32 169.041C112.268 168.971 112.242 168.893 112.242 168.807V161.371C112.242 161.284 112.198 161.241 112.112 161.241H105.482C105.395 161.241 105.352 161.284 105.352 161.371V168.807C105.352 168.893 105.317 168.971 105.248 169.041C105.196 169.093 105.126 169.119 105.04 169.119H102.648C102.561 169.119 102.483 169.093 102.414 169.041C102.362 168.971 102.336 168.893 102.336 168.807V151.231C102.336 151.144 102.362 151.075 102.414 151.023C102.483 150.953 102.561 150.919 102.648 150.919H105.04C105.126 150.919 105.196 150.953 105.248 151.023C105.317 151.075 105.352 151.144 105.352 151.231V158.511C105.352 158.597 105.395 158.641 105.482 158.641H112.112C112.198 158.641 112.242 158.597 112.242 158.511V151.231ZM130.276 169.119C130.103 169.119 129.99 169.032 129.938 168.859L129.08 166.077C129.045 166.007 129.002 165.973 128.95 165.973H122.086C122.034 165.973 121.991 166.007 121.956 166.077L121.098 168.859C121.046 169.032 120.933 169.119 120.76 169.119H118.16C118.056 169.119 117.978 169.093 117.926 169.041C117.874 168.971 117.865 168.876 117.9 168.755L123.542 151.179C123.594 151.005 123.707 150.919 123.88 150.919H127.13C127.303 150.919 127.416 151.005 127.468 151.179L133.136 168.755C133.153 168.789 133.162 168.833 133.162 168.885C133.162 169.041 133.067 169.119 132.876 169.119H130.276ZM122.762 163.451C122.745 163.555 122.779 163.607 122.866 163.607H128.144C128.248 163.607 128.283 163.555 128.248 163.451L125.57 154.741C125.553 154.671 125.527 154.637 125.492 154.637C125.457 154.637 125.431 154.671 125.414 154.741L122.762 163.451ZM145.78 150.919C145.867 150.919 145.936 150.953 145.988 151.023C146.057 151.075 146.092 151.144 146.092 151.231V153.233C146.092 153.319 146.057 153.397 145.988 153.467C145.936 153.519 145.867 153.545 145.78 153.545H140.996C140.909 153.545 140.866 153.588 140.866 153.675V168.807C140.866 168.893 140.831 168.971 140.762 169.041C140.71 169.093 140.641 169.119 140.554 169.119H138.162C138.075 169.119 137.997 169.093 137.928 169.041C137.876 168.971 137.85 168.893 137.85 168.807V153.675C137.85 153.588 137.807 153.545 137.72 153.545H133.118C133.031 153.545 132.953 153.519 132.884 153.467C132.832 153.397 132.806 153.319 132.806 153.233V151.231C132.806 151.144 132.832 151.075 132.884 151.023C132.953 150.953 133.031 150.919 133.118 150.919H145.78Z" fill="#303030"/>
<defs>
<linearGradient id="paint0_linear_348_1834" x1="0" y1="106.433" x2="212.641" y2="106.433" gradientUnits="userSpaceOnUse">
<stop stop-color="#EED75B"/>
<stop offset="1" stop-color="#C5A708"/>
</linearGradient>
<linearGradient id="paint1_linear_348_1834" x1="84.2689" y1="107.222" x2="128.372" y2="107.222" gradientUnits="userSpaceOnUse">
<stop stop-color="#EED75B"/>
<stop offset="1" stop-color="#C5A708"/>
</linearGradient>
</defs>
</svg>
