<svg width="280" height="291" viewBox="0 0 280 291" fill="none" xmlns="http://www.w3.org/2000/svg">
<g filter="url(#filter0_d_351_510)">
<circle cx="6.15961" cy="6.15961" r="6.15961" transform="matrix(0.706733 0.70748 -0.706733 0.70748 232.507 37.3896)" fill="#A8B0B2"/>
<circle cx="6.15961" cy="6.15961" r="6.15961" transform="matrix(0.706733 0.70748 -0.706733 0.70748 49.0027 221.087)" fill="#A8B0B2"/>
<circle cx="6.15961" cy="6.15961" r="6.15961" transform="matrix(0.706733 0.70748 -0.706733 0.70748 231.388 219.967)" fill="#A8B0B2"/>
<circle cx="6.15961" cy="6.15961" r="6.15961" transform="matrix(0.706733 0.70748 -0.706733 0.70748 49.0027 37.3896)" fill="#A8B0B2"/>
<circle cx="6.15961" cy="6.15961" r="6.15961" transform="matrix(0.706733 0.70748 -0.706733 0.70748 140.464 0)" fill="#A8B0B2"/>
<circle cx="6.15961" cy="6.15961" r="6.15961" transform="matrix(0.706733 0.70748 -0.706733 0.70748 140.464 258.84)" fill="#999999"/>
<circle cx="6.15961" cy="6.15961" r="6.15961" transform="matrix(0.706733 0.70748 -0.706733 0.70748 10.7064 129.894)" fill="#A8B0B2"/>
<circle cx="6.15961" cy="6.15961" r="6.15961" transform="matrix(0.706733 0.70748 -0.706733 0.70748 269.274 129.894)" fill="#A8B0B2"/>
<path d="M265.836 138.136C265.836 207.719 209.489 264.119 139.99 264.119C70.491 264.119 14.1437 207.719 14.1437 138.136C14.1437 68.5531 70.491 12.1523 139.99 12.1523C209.489 12.1523 265.836 68.5531 265.836 138.136Z" fill="#F9FAFB" stroke="#9CABB0" stroke-width="8"/>
<ellipse cx="140.442" cy="137.683" rx="108.582" ry="108.697" fill="#909090"/>
<path d="M111.887 147.378C111.801 147.378 111.723 147.352 111.653 147.3C111.601 147.231 111.575 147.153 111.575 147.066V129.49C111.575 129.404 111.601 129.334 111.653 129.282C111.723 129.213 111.801 129.178 111.887 129.178H114.279C114.366 129.178 114.435 129.213 114.487 129.282C114.557 129.334 114.591 129.404 114.591 129.49V137.264C114.591 137.316 114.609 137.351 114.643 137.368C114.678 137.386 114.713 137.377 114.747 137.342L121.507 129.36C121.611 129.239 121.741 129.178 121.897 129.178H124.601C124.775 129.178 124.861 129.239 124.861 129.36C124.861 129.412 124.835 129.482 124.783 129.568L118.829 136.874C118.777 136.944 118.769 137.004 118.803 137.056L125.199 147.014C125.234 147.118 125.251 147.179 125.251 147.196C125.251 147.318 125.165 147.378 124.991 147.378H122.261C122.105 147.378 121.984 147.309 121.897 147.17L116.749 139.162C116.68 139.058 116.619 139.05 116.567 139.136L114.643 141.372C114.609 141.442 114.591 141.502 114.591 141.554V147.066C114.591 147.153 114.557 147.231 114.487 147.3C114.435 147.352 114.366 147.378 114.279 147.378H111.887ZM128.01 147.378C127.924 147.378 127.846 147.352 127.776 147.3C127.724 147.231 127.698 147.153 127.698 147.066V129.49C127.698 129.404 127.724 129.334 127.776 129.282C127.846 129.213 127.924 129.178 128.01 129.178H130.402C130.489 129.178 130.558 129.213 130.61 129.282C130.68 129.334 130.714 129.404 130.714 129.49V147.066C130.714 147.153 130.68 147.231 130.61 147.3C130.558 147.352 130.489 147.378 130.402 147.378H128.01ZM140.587 147.586C139.287 147.586 138.143 147.335 137.155 146.832C136.167 146.312 135.404 145.593 134.867 144.674C134.33 143.756 134.061 142.69 134.061 141.476V135.054C134.061 133.841 134.33 132.775 134.867 131.856C135.404 130.938 136.167 130.227 137.155 129.724C138.143 129.222 139.287 128.97 140.587 128.97C141.87 128.97 143.005 129.213 143.993 129.698C144.981 130.184 145.744 130.868 146.281 131.752C146.818 132.636 147.087 133.659 147.087 134.82C147.087 134.907 147.052 134.985 146.983 135.054C146.931 135.106 146.862 135.132 146.775 135.132L144.383 135.262C144.175 135.262 144.071 135.167 144.071 134.976C144.071 133.954 143.75 133.13 143.109 132.506C142.485 131.882 141.644 131.57 140.587 131.57C139.53 131.57 138.68 131.882 138.039 132.506C137.398 133.13 137.077 133.954 137.077 134.976V141.606C137.077 142.612 137.398 143.426 138.039 144.05C138.68 144.674 139.53 144.986 140.587 144.986C141.644 144.986 142.485 144.683 143.109 144.076C143.75 143.452 144.071 142.629 144.071 141.606C144.071 141.416 144.175 141.32 144.383 141.32L146.775 141.424C146.862 141.424 146.931 141.45 146.983 141.502C147.052 141.554 147.087 141.615 147.087 141.684C147.087 142.863 146.818 143.903 146.281 144.804C145.744 145.688 144.981 146.373 143.993 146.858C143.005 147.344 141.87 147.586 140.587 147.586ZM150.633 147.378C150.547 147.378 150.469 147.352 150.399 147.3C150.347 147.231 150.321 147.153 150.321 147.066V129.49C150.321 129.404 150.347 129.334 150.399 129.282C150.469 129.213 150.547 129.178 150.633 129.178H153.025C153.112 129.178 153.181 129.213 153.233 129.282C153.303 129.334 153.337 129.404 153.337 129.49V137.264C153.337 137.316 153.355 137.351 153.389 137.368C153.424 137.386 153.459 137.377 153.493 137.342L160.253 129.36C160.357 129.239 160.487 129.178 160.643 129.178H163.347C163.521 129.178 163.607 129.239 163.607 129.36C163.607 129.412 163.581 129.482 163.529 129.568L157.575 136.874C157.523 136.944 157.515 137.004 157.549 137.056L163.945 147.014C163.98 147.118 163.997 147.179 163.997 147.196C163.997 147.318 163.911 147.378 163.737 147.378H161.007C160.851 147.378 160.73 147.309 160.643 147.17L155.495 139.162C155.426 139.058 155.365 139.05 155.313 139.136L153.389 141.372C153.355 141.442 153.337 141.502 153.337 141.554V147.066C153.337 147.153 153.303 147.231 153.233 147.3C153.181 147.352 153.112 147.378 153.025 147.378H150.633Z" fill="white"/>
<rect x="129.584" y="187.502" width="21.7165" height="22.6452" rx="4" fill="#F9FAFB"/>
<path d="M124.352 248.091C125.1 247.019 126.325 246.38 127.633 246.38H152.616C153.986 246.38 155.261 247.081 155.994 248.238L172.743 274.659C174.431 277.322 172.518 280.801 169.365 280.801H109.201C105.968 280.801 104.071 277.164 105.921 274.512L124.352 248.091Z" fill="#A8B0B2"/>
<path d="M127.591 249.522C128.148 248.691 129.083 248.191 130.084 248.191H149.718C150.765 248.191 151.737 248.737 152.281 249.632L165.718 271.712C166.935 273.711 165.496 276.271 163.155 276.271H115.297C112.898 276.271 111.47 273.595 112.804 271.602L127.591 249.522Z" fill="#D9D9D9"/>
<path d="M138.633 210.147H142.252V248.193C142.252 249.193 141.442 250.003 140.442 250.003C139.443 250.003 138.633 249.193 138.633 248.193V210.147Z" fill="#A8B0B2"/>
<path d="M140 99C156.569 99 170 85.5685 170 69C170 52.4315 156.569 39 140 39C123.431 39 110 52.4315 110 69C110 85.5685 123.431 99 140 99Z" fill="#182F80"/>
<path d="M166.943 50.066L165.622 54.1119L163.986 58.7341H160.966H156.847L157.649 56.4458H151.866H145.696L144.267 61.1897L142.867 65.9823L147.542 66.0309H151.644L149.644 72.3452L145.56 72.3701H141.024L139.81 76.6965L138.576 80.998H144.47H151.018L151.681 79.2517L152.343 77.5054L155.856 76.4044L160.274 75.0108L158.401 80.9979L156.529 86.985C156.443 87.2751 156.142 87.5109 155.856 87.5109H134.169H112.381C112.096 87.5109 111.934 87.2751 112.02 86.9839L116.12 75.3102L119.704 74.4121L123.582 73.5141L121.137 80.998L125.967 80.9981L131.168 80.998L134.923 67.9841L138.466 56.4458L134.505 56.4378H129.17L128.804 57.2936L128.198 58.7341H124.805H121.15L124.105 50.0659C124.191 49.7746 124.492 49.5389 124.779 49.54H146.134H166.884C167.17 49.54 167.028 49.7759 166.943 50.066Z" fill="#909090"/>
</g>
<defs>
<filter id="filter0_d_351_510" x="0.550049" y="2.55273" width="278.88" height="288.248" filterUnits="userSpaceOnUse" color-interpolation-filters="sRGB">
<feFlood flood-opacity="0" result="BackgroundImageFix"/>
<feColorMatrix in="SourceAlpha" type="matrix" values="0 0 0 0 0 0 0 0 0 0 0 0 0 0 0 0 0 0 127 0" result="hardAlpha"/>
<feOffset dy="6"/>
<feGaussianBlur stdDeviation="2"/>
<feComposite in2="hardAlpha" operator="out"/>
<feColorMatrix type="matrix" values="0 0 0 0 0 0 0 0 0 0 0 0 0 0 0 0 0 0 0.25 0"/>
<feBlend mode="normal" in2="BackgroundImageFix" result="effect1_dropShadow_351_510"/>
<feBlend mode="normal" in="SourceGraphic" in2="effect1_dropShadow_351_510" result="shape"/>
</filter>
</defs>
</svg>
