<svg width="272" height="273" viewBox="0 0 272 273" fill="none" xmlns="http://www.w3.org/2000/svg">
<ellipse cx="136.272" cy="136.148" rx="135.728" ry="135.871" fill="url(#paint0_linear_348_1876)"/>
<path d="M260.441 137.153C260.441 205.803 204.848 261.454 136.272 261.454C67.6962 261.454 12.1035 205.803 12.1035 137.153C12.1035 68.5037 67.6962 12.853 136.272 12.853C204.848 12.853 260.441 68.5037 260.441 137.153Z" stroke="#D5BF4C"/>
<path d="M248.376 137.154C248.376 199.134 198.185 249.377 136.272 249.377C74.3595 249.377 24.1684 199.134 24.1684 137.154C24.1684 75.175 74.3595 24.9316 136.272 24.9316C198.185 24.9316 248.376 75.175 248.376 137.154Z" stroke="#D5BF4C"/>
<path d="M236.311 137.154C236.311 192.463 191.522 237.3 136.272 237.3C81.0225 237.3 36.233 192.463 36.233 137.154C36.233 81.8449 81.0225 37.0088 136.272 37.0088C191.522 37.0088 236.311 81.8449 236.311 137.154Z" stroke="#D5BF4C"/>
<path d="M224.247 137.154C224.247 185.793 184.859 225.222 136.272 225.222C87.6857 225.222 48.2977 185.793 48.2977 137.154C48.2977 88.5148 87.6857 49.0859 136.272 49.0859C184.859 49.0859 224.247 88.5148 224.247 137.154Z" stroke="#D5BF4C"/>
<path d="M212.182 137.155C212.182 179.123 178.195 213.145 136.272 213.145C94.3489 213.145 60.3624 179.123 60.3624 137.155C60.3624 95.1857 94.3489 61.1641 136.272 61.1641C178.195 61.1641 212.182 95.1857 212.182 137.155Z" stroke="#D5BF4C"/>
<path d="M200.117 137.154C200.117 172.452 171.532 201.067 136.272 201.067C101.012 201.067 72.4271 172.452 72.4271 137.154C72.4271 101.855 101.012 73.2407 136.272 73.2407C171.532 73.2407 200.117 101.855 200.117 137.154Z" stroke="#D5BF4C"/>
<path d="M187.979 137.045C187.979 165.673 164.796 188.88 136.199 188.88C107.603 188.88 84.42 165.673 84.42 137.045C84.42 108.417 107.603 85.2104 136.199 85.2104C164.796 85.2104 187.979 108.417 187.979 137.045Z" stroke="#D5BF4C"/>
<ellipse cx="136.272" cy="137.154" rx="40.2157" ry="40.2582" fill="url(#paint1_linear_348_1876)"/>
<path d="M163.955 137.152C163.955 152.439 151.576 164.831 136.306 164.831C121.037 164.831 108.657 152.439 108.657 137.152C108.657 121.865 121.037 109.473 136.306 109.473C151.576 109.473 163.955 121.865 163.955 137.152Z" stroke="#D5BF4C"/>
<ellipse cx="136.272" cy="137.154" rx="12.0647" ry="12.0774" fill="#303030"/>
<rect x="120.686" y="134.634" width="31.1725" height="5.03872" rx="2.51936" fill="#BABABA" stroke="#303030"/>
<path d="M121.443 216.496C121.269 216.496 121.148 216.418 121.079 216.262L117.647 208.774C117.612 208.705 117.56 208.67 117.491 208.67H114.371C114.284 208.67 114.241 208.713 114.241 208.8V216.184C114.241 216.271 114.206 216.349 114.137 216.418C114.085 216.47 114.015 216.496 113.929 216.496H111.537C111.45 216.496 111.372 216.47 111.303 216.418C111.251 216.349 111.225 216.271 111.225 216.184V198.608C111.225 198.521 111.251 198.452 111.303 198.4C111.372 198.331 111.45 198.296 111.537 198.296H118.687C119.744 198.296 120.68 198.521 121.495 198.972C122.309 199.405 122.942 200.029 123.393 200.844C123.843 201.641 124.069 202.56 124.069 203.6C124.069 204.796 123.757 205.819 123.133 206.668C122.526 207.5 121.677 208.081 120.585 208.41C120.55 208.41 120.524 208.427 120.507 208.462C120.489 208.497 120.489 208.531 120.507 208.566L124.173 216.132C124.207 216.201 124.225 216.253 124.225 216.288C124.225 216.427 124.129 216.496 123.939 216.496H121.443ZM114.371 200.896C114.284 200.896 114.241 200.939 114.241 201.026V206.2C114.241 206.287 114.284 206.33 114.371 206.33H118.271C119.103 206.33 119.77 206.087 120.273 205.602C120.793 205.099 121.053 204.441 121.053 203.626C121.053 202.811 120.793 202.153 120.273 201.65C119.77 201.147 119.103 200.896 118.271 200.896H114.371ZM127.482 216.496C127.395 216.496 127.317 216.47 127.248 216.418C127.196 216.349 127.17 216.271 127.17 216.184V198.608C127.17 198.521 127.196 198.452 127.248 198.4C127.317 198.331 127.395 198.296 127.482 198.296H129.874C129.961 198.296 130.03 198.331 130.082 198.4C130.151 198.452 130.186 198.521 130.186 198.608V216.184C130.186 216.271 130.151 216.349 130.082 216.418C130.03 216.47 129.961 216.496 129.874 216.496H127.482ZM134.287 216.496C134.2 216.496 134.122 216.47 134.053 216.418C134.001 216.349 133.975 216.271 133.975 216.184V198.608C133.975 198.521 134.001 198.452 134.053 198.4C134.122 198.331 134.2 198.296 134.287 198.296H140.631C141.861 198.296 142.945 198.513 143.881 198.946C144.817 199.379 145.536 200.003 146.039 200.818C146.559 201.615 146.819 202.551 146.819 203.626V211.166C146.819 212.241 146.559 213.185 146.039 214C145.536 214.797 144.817 215.413 143.881 215.846C142.945 216.279 141.861 216.496 140.631 216.496H134.287ZM136.991 213.766C136.991 213.853 137.034 213.896 137.121 213.896H140.761C141.679 213.896 142.407 213.61 142.945 213.038C143.499 212.449 143.785 211.669 143.803 210.698V204.12C143.803 203.132 143.525 202.352 142.971 201.78C142.416 201.191 141.671 200.896 140.735 200.896H137.121C137.034 200.896 136.991 200.939 136.991 201.026V213.766ZM162.371 200.584C162.371 200.671 162.336 200.749 162.267 200.818C162.215 200.87 162.146 200.896 162.059 200.896H153.193C153.106 200.896 153.063 200.939 153.063 201.026V205.888C153.063 205.975 153.106 206.018 153.193 206.018H159.147C159.234 206.018 159.303 206.053 159.355 206.122C159.424 206.174 159.459 206.243 159.459 206.33V208.306C159.459 208.393 159.424 208.471 159.355 208.54C159.303 208.592 159.234 208.618 159.147 208.618H153.193C153.106 208.618 153.063 208.661 153.063 208.748V213.766C153.063 213.853 153.106 213.896 153.193 213.896H162.059C162.146 213.896 162.215 213.931 162.267 214C162.336 214.052 162.371 214.121 162.371 214.208V216.184C162.371 216.271 162.336 216.349 162.267 216.418C162.215 216.47 162.146 216.496 162.059 216.496H150.359C150.272 216.496 150.194 216.47 150.125 216.418C150.073 216.349 150.047 216.271 150.047 216.184V198.608C150.047 198.521 150.073 198.452 150.125 198.4C150.194 198.331 150.272 198.296 150.359 198.296H162.059C162.146 198.296 162.215 198.331 162.267 198.4C162.336 198.452 162.371 198.521 162.371 198.608V200.584Z" fill="#303030"/>
<defs>
<linearGradient id="paint0_linear_348_1876" x1="0.544312" y1="136.148" x2="272" y2="136.148" gradientUnits="userSpaceOnUse">
<stop stop-color="#EED75B"/>
<stop offset="1" stop-color="#C5A708"/>
</linearGradient>
<linearGradient id="paint1_linear_348_1876" x1="96" y1="137" x2="176" y2="137" gradientUnits="userSpaceOnUse">
<stop stop-color="#EED75B"/>
<stop offset="1" stop-color="#C5A708"/>
</linearGradient>
</defs>
</svg>
