<svg width="224" height="226" viewBox="0 0 224 226" fill="none" xmlns="http://www.w3.org/2000/svg">
<g filter="url(#filter0_d_351_532)">
<circle cx="4.85016" cy="4.85016" r="4.85016" transform="matrix(0.706733 0.70748 -0.706733 0.70748 183.504 29.4409)" fill="#A8B0B2"/>
<circle cx="4.85016" cy="4.85016" r="4.85016" transform="matrix(0.706733 0.70748 -0.706733 0.70748 39.0106 174.087)" fill="#A8B0B2"/>
<circle cx="4.85016" cy="4.85016" r="4.85016" transform="matrix(0.706733 0.70748 -0.706733 0.70748 182.623 173.206)" fill="#A8B0B2"/>
<circle cx="4.85016" cy="4.85016" r="4.85016" transform="matrix(0.706733 0.70748 -0.706733 0.70748 39.0106 29.4409)" fill="#A8B0B2"/>
<circle cx="4.85016" cy="4.85016" r="4.85016" transform="matrix(0.706733 0.70748 -0.706733 0.70748 111.028 0)" fill="#A8B0B2"/>
<circle cx="4.85016" cy="4.85016" r="4.85016" transform="matrix(0.706733 0.70748 -0.706733 0.70748 111.028 203.814)" fill="#A8B0B2"/>
<circle cx="4.85016" cy="4.85016" r="4.85016" transform="matrix(0.706733 0.70748 -0.706733 0.70748 8.85559 102.281)" fill="#A8B0B2"/>
<circle cx="4.85016" cy="4.85016" r="4.85016" transform="matrix(0.706733 0.70748 -0.706733 0.70748 212.455 102.281)" fill="#A8B0B2"/>
<path d="M196.152 77.4121L188.343 61.3845L207.179 52.1879C211.15 50.2494 215.937 51.8978 217.872 55.8697L218.673 57.5137C220.608 61.4857 218.959 66.277 214.988 68.2155L196.152 77.4121Z" fill="#D9D9D9"/>
<circle cx="6.78998" cy="6.78998" r="6.78998" transform="matrix(0.706733 0.70748 -0.706733 0.70748 210.665 50.7251)" fill="#A8B0B2"/>
<path d="M208.976 108.617C208.976 162.941 164.985 206.973 110.728 206.973C56.4709 206.973 12.4796 162.941 12.4796 108.617C12.4796 54.2919 56.4709 10.2603 110.728 10.2603C164.985 10.2603 208.976 54.2919 208.976 108.617Z" fill="#909090" stroke="#9CABB0" stroke-width="8"/>
<ellipse cx="110.582" cy="108.697" rx="90.4853" ry="90.5808" fill="#F9FAFB"/>
<path d="M185.995 108.697C185.995 150.392 152.23 184.191 110.582 184.191C68.9347 184.191 35.1699 150.392 35.1699 108.697C35.1699 67.0013 68.9347 33.2031 110.582 33.2031C152.23 33.2031 185.995 67.0013 185.995 108.697Z" stroke="#909090" stroke-width="3"/>
<path d="M75.9738 121.238C74.6218 121.238 73.4432 121.021 72.4378 120.588C71.4325 120.154 70.6525 119.548 70.0978 118.768C69.5605 117.988 69.2918 117.069 69.2918 116.012V115.362C69.2918 115.275 69.3178 115.206 69.3698 115.154C69.4392 115.084 69.5172 115.05 69.6038 115.05H71.9178C72.0045 115.05 72.0738 115.084 72.1258 115.154C72.1952 115.206 72.2298 115.275 72.2298 115.362V115.856C72.2298 116.653 72.5852 117.32 73.2958 117.858C74.0065 118.378 74.9772 118.638 76.2078 118.638C77.2652 118.638 78.0625 118.412 78.5998 117.962C79.1372 117.511 79.4058 116.93 79.4058 116.22C79.4058 115.734 79.2585 115.327 78.9638 114.998C78.6692 114.651 78.2445 114.339 77.6898 114.062C77.1525 113.784 76.3378 113.438 75.2458 113.022C74.0152 112.571 73.0185 112.146 72.2558 111.748C71.4932 111.349 70.8518 110.812 70.3318 110.136C69.8292 109.442 69.5778 108.584 69.5778 107.562C69.5778 106.036 70.1325 104.832 71.2418 103.948C72.3512 103.064 73.8332 102.622 75.6878 102.622C76.9878 102.622 78.1318 102.847 79.1198 103.298C80.1252 103.748 80.9052 104.381 81.4598 105.196C82.0145 105.993 82.2918 106.92 82.2918 107.978V108.42C82.2918 108.506 82.2572 108.584 82.1878 108.654C82.1358 108.706 82.0665 108.732 81.9798 108.732H79.6398C79.5532 108.732 79.4752 108.706 79.4058 108.654C79.3538 108.584 79.3278 108.506 79.3278 108.42V108.134C79.3278 107.319 78.9898 106.634 78.3138 106.08C77.6552 105.508 76.7365 105.222 75.5578 105.222C74.6045 105.222 73.8592 105.421 73.3218 105.82C72.8018 106.218 72.5418 106.782 72.5418 107.51C72.5418 108.03 72.6805 108.454 72.9578 108.784C73.2352 109.113 73.6512 109.416 74.2058 109.694C74.7605 109.954 75.6185 110.292 76.7798 110.708C78.0105 111.176 78.9898 111.6 79.7178 111.982C80.4632 112.363 81.0958 112.9 81.6158 113.594C82.1532 114.27 82.4218 115.119 82.4218 116.142C82.4218 117.702 81.8412 118.941 80.6798 119.86C79.5358 120.778 77.9672 121.238 75.9738 121.238ZM96.0412 103.142C96.0412 103.055 96.0672 102.986 96.1192 102.934C96.1885 102.864 96.2665 102.83 96.3532 102.83H98.7452C98.8318 102.83 98.9012 102.864 98.9532 102.934C99.0225 102.986 99.0572 103.055 99.0572 103.142V120.718C99.0572 120.804 99.0225 120.882 98.9532 120.952C98.9012 121.004 98.8318 121.03 98.7452 121.03H96.4312C96.2578 121.03 96.1365 120.96 96.0672 120.822L88.5792 108.55C88.5445 108.498 88.5098 108.48 88.4752 108.498C88.4405 108.498 88.4232 108.532 88.4232 108.602L88.4752 120.718C88.4752 120.804 88.4405 120.882 88.3712 120.952C88.3192 121.004 88.2498 121.03 88.1632 121.03H85.7712C85.6845 121.03 85.6065 121.004 85.5372 120.952C85.4852 120.882 85.4592 120.804 85.4592 120.718V103.142C85.4592 103.055 85.4852 102.986 85.5372 102.934C85.6065 102.864 85.6845 102.83 85.7712 102.83H88.0852C88.2585 102.83 88.3798 102.899 88.4492 103.038L95.9112 115.31C95.9458 115.362 95.9805 115.388 96.0152 115.388C96.0498 115.37 96.0672 115.327 96.0672 115.258L96.0412 103.142ZM114.136 121.03C113.962 121.03 113.85 120.943 113.798 120.77L112.94 117.988C112.905 117.918 112.862 117.884 112.81 117.884H105.946C105.894 117.884 105.85 117.918 105.816 117.988L104.958 120.77C104.906 120.943 104.793 121.03 104.62 121.03H102.02C101.916 121.03 101.838 121.004 101.786 120.952C101.734 120.882 101.725 120.787 101.76 120.666L107.402 103.09C107.454 102.916 107.566 102.83 107.74 102.83H110.99C111.163 102.83 111.276 102.916 111.328 103.09L116.996 120.666C117.013 120.7 117.022 120.744 117.022 120.796C117.022 120.952 116.926 121.03 116.736 121.03H114.136ZM106.622 115.362C106.604 115.466 106.639 115.518 106.726 115.518H112.004C112.108 115.518 112.142 115.466 112.108 115.362L109.43 106.652C109.412 106.582 109.386 106.548 109.352 106.548C109.317 106.548 109.291 106.582 109.274 106.652L106.622 115.362ZM129.929 121.03C129.756 121.03 129.634 120.952 129.565 120.796L126.133 113.308C126.098 113.238 126.046 113.204 125.977 113.204H122.857C122.77 113.204 122.727 113.247 122.727 113.334V120.718C122.727 120.804 122.692 120.882 122.623 120.952C122.571 121.004 122.502 121.03 122.415 121.03H120.023C119.936 121.03 119.858 121.004 119.789 120.952C119.737 120.882 119.711 120.804 119.711 120.718V103.142C119.711 103.055 119.737 102.986 119.789 102.934C119.858 102.864 119.936 102.83 120.023 102.83H127.173C128.23 102.83 129.166 103.055 129.981 103.506C130.796 103.939 131.428 104.563 131.879 105.378C132.33 106.175 132.555 107.094 132.555 108.134C132.555 109.33 132.243 110.352 131.619 111.202C131.012 112.034 130.163 112.614 129.071 112.944C129.036 112.944 129.01 112.961 128.993 112.996C128.976 113.03 128.976 113.065 128.993 113.1L132.659 120.666C132.694 120.735 132.711 120.787 132.711 120.822C132.711 120.96 132.616 121.03 132.425 121.03H129.929ZM122.857 105.43C122.77 105.43 122.727 105.473 122.727 105.56V110.734C122.727 110.82 122.77 110.864 122.857 110.864H126.757C127.589 110.864 128.256 110.621 128.759 110.136C129.279 109.633 129.539 108.974 129.539 108.16C129.539 107.345 129.279 106.686 128.759 106.184C128.256 105.681 127.589 105.43 126.757 105.43H122.857ZM147.98 105.118C147.98 105.204 147.946 105.282 147.876 105.352C147.824 105.404 147.755 105.43 147.668 105.43H138.802C138.716 105.43 138.672 105.473 138.672 105.56V110.422C138.672 110.508 138.716 110.552 138.802 110.552H144.756C144.843 110.552 144.912 110.586 144.964 110.656C145.034 110.708 145.068 110.777 145.068 110.864V112.84C145.068 112.926 145.034 113.004 144.964 113.074C144.912 113.126 144.843 113.152 144.756 113.152H138.802C138.716 113.152 138.672 113.195 138.672 113.282V118.3C138.672 118.386 138.716 118.43 138.802 118.43H147.668C147.755 118.43 147.824 118.464 147.876 118.534C147.946 118.586 147.98 118.655 147.98 118.742V120.718C147.98 120.804 147.946 120.882 147.876 120.952C147.824 121.004 147.755 121.03 147.668 121.03H135.968C135.882 121.03 135.804 121.004 135.734 120.952C135.682 120.882 135.656 120.804 135.656 120.718V103.142C135.656 103.055 135.682 102.986 135.734 102.934C135.804 102.864 135.882 102.83 135.968 102.83H147.668C147.755 102.83 147.824 102.864 147.876 102.934C147.946 102.986 147.98 103.055 147.98 103.142V105.118Z" fill="#303030"/>
</g>
<defs>
<filter id="filter0_d_351_532" x="0.00793457" y="2.01025" width="223.476" height="223.519" filterUnits="userSpaceOnUse" color-interpolation-filters="sRGB">
<feFlood flood-opacity="0" result="BackgroundImageFix"/>
<feColorMatrix in="SourceAlpha" type="matrix" values="0 0 0 0 0 0 0 0 0 0 0 0 0 0 0 0 0 0 127 0" result="hardAlpha"/>
<feOffset dy="6"/>
<feGaussianBlur stdDeviation="2"/>
<feComposite in2="hardAlpha" operator="out"/>
<feColorMatrix type="matrix" values="0 0 0 0 0 0 0 0 0 0 0 0 0 0 0 0 0 0 0.25 0"/>
<feBlend mode="normal" in2="BackgroundImageFix" result="effect1_dropShadow_351_532"/>
<feBlend mode="normal" in="SourceGraphic" in2="effect1_dropShadow_351_532" result="shape"/>
</filter>
</defs>
</svg>
