<svg width="166" height="166" viewBox="0 0 166 166" fill="none" xmlns="http://www.w3.org/2000/svg">
<ellipse cx="82.794" cy="82.8815" rx="82.794" ry="82.8815" fill="url(#paint0_linear_348_1848)"/>
<path d="M158.342 83.4953C158.342 125.264 124.517 159.124 82.794 159.124C41.0706 159.124 7.24615 125.264 7.24615 83.4953C7.24615 41.7266 41.0706 7.86719 82.794 7.86719C124.517 7.86719 158.342 41.7266 158.342 83.4953Z" stroke="#D5BF4C"/>
<path d="M150.982 83.4953C150.982 121.195 120.453 151.756 82.7941 151.756C45.1352 151.756 14.6057 121.195 14.6057 83.4953C14.6057 45.7953 45.1352 15.2344 82.7941 15.2344C120.453 15.2344 150.982 45.7953 150.982 83.4953Z" stroke="#D5BF4C"/>
<path d="M143.623 83.4952C143.623 117.126 116.388 144.389 82.794 144.389C49.1997 144.389 21.9651 117.126 21.9651 83.4952C21.9651 49.8641 49.1997 22.6016 82.794 22.6016C116.388 22.6016 143.623 49.8641 143.623 83.4952Z" stroke="#D5BF4C"/>
<path d="M136.263 83.4952C136.263 113.058 112.324 137.022 82.794 137.022C53.2642 137.022 29.3246 113.058 29.3246 83.4952C29.3246 53.9329 53.2642 29.9688 82.794 29.9688C112.324 29.9688 136.263 53.9329 136.263 83.4952Z" stroke="#D5BF4C"/>
<path d="M128.904 83.4961C128.904 108.99 108.259 129.655 82.794 129.655C57.3287 129.655 36.6841 108.99 36.6841 83.4961C36.6841 58.0026 57.3287 37.3369 82.794 37.3369C108.259 37.3369 128.904 58.0026 128.904 83.4961Z" stroke="#D5BF4C"/>
<path d="M121.545 83.4951C121.545 104.92 104.195 122.287 82.7941 122.287C61.3933 122.287 44.0436 104.92 44.0436 83.4951C44.0436 62.0704 61.3933 44.7031 82.7941 44.7031C104.195 44.7031 121.545 62.0704 121.545 83.4951Z" stroke="#D5BF4C"/>
<path d="M114.185 83.495C114.185 100.851 100.13 114.92 82.794 114.92C65.4578 114.92 51.403 100.851 51.403 83.495C51.403 66.1391 65.4578 52.0703 82.794 52.0703C100.13 52.0703 114.185 66.1391 114.185 83.495Z" stroke="#D5BF4C"/>
<path d="M106.826 83.4955C106.826 96.7825 96.0658 107.553 82.794 107.553C69.5222 107.553 58.7625 96.7825 58.7625 83.4955C58.7625 70.2084 69.5222 59.438 82.794 59.438C96.0658 59.438 106.826 70.2084 106.826 83.4955Z" stroke="#D5BF4C"/>
<ellipse cx="82.794" cy="83.4959" rx="17.1721" ry="17.1902" fill="url(#paint1_linear_348_1848)"/>
<ellipse cx="82.794" cy="83.4957" rx="7.35947" ry="7.36724" fill="#303030"/>
<rect x="0.706733" width="18.6356" height="2.68168" rx="1.34084" transform="matrix(0.706733 -0.70748 0.706733 0.70748 74.7617 89.6392)" fill="#BABABA" stroke="#303030"/>
<path d="M44.4367 129.47C43.0847 129.47 41.906 129.254 40.9007 128.82C39.8954 128.387 39.1154 127.78 38.5607 127C38.0234 126.22 37.7547 125.302 37.7547 124.244V123.594C37.7547 123.508 37.7807 123.438 37.8327 123.386C37.902 123.317 37.98 123.282 38.0667 123.282H40.3807C40.4674 123.282 40.5367 123.317 40.5887 123.386C40.658 123.438 40.6927 123.508 40.6927 123.594V124.088C40.6927 124.886 41.048 125.553 41.7587 126.09C42.4694 126.61 43.44 126.87 44.6707 126.87C45.728 126.87 46.5254 126.645 47.0627 126.194C47.6 125.744 47.8687 125.163 47.8687 124.452C47.8687 123.967 47.7214 123.56 47.4267 123.23C47.132 122.884 46.7074 122.572 46.1527 122.294C45.6154 122.017 44.8007 121.67 43.7087 121.254C42.478 120.804 41.4814 120.379 40.7187 119.98C39.956 119.582 39.3147 119.044 38.7947 118.368C38.292 117.675 38.0407 116.817 38.0407 115.794C38.0407 114.269 38.5954 113.064 39.7047 112.18C40.814 111.296 42.296 110.854 44.1507 110.854C45.4507 110.854 46.5947 111.08 47.5827 111.53C48.588 111.981 49.368 112.614 49.9227 113.428C50.4774 114.226 50.7547 115.153 50.7547 116.21V116.652C50.7547 116.739 50.72 116.817 50.6507 116.886C50.5987 116.938 50.5294 116.964 50.4427 116.964H48.1027C48.016 116.964 47.938 116.938 47.8687 116.886C47.8167 116.817 47.7907 116.739 47.7907 116.652V116.366C47.7907 115.552 47.4527 114.867 46.7767 114.312C46.118 113.74 45.1994 113.454 44.0207 113.454C43.0674 113.454 42.322 113.654 41.7847 114.052C41.2647 114.451 41.0047 115.014 41.0047 115.742C41.0047 116.262 41.1434 116.687 41.4207 117.016C41.698 117.346 42.114 117.649 42.6687 117.926C43.2234 118.186 44.0814 118.524 45.2427 118.94C46.4734 119.408 47.4527 119.833 48.1807 120.214C48.926 120.596 49.5587 121.133 50.0787 121.826C50.616 122.502 50.8847 123.352 50.8847 124.374C50.8847 125.934 50.304 127.174 49.1427 128.092C47.9987 129.011 46.43 129.47 44.4367 129.47ZM61.228 111.036C62.32 111.036 63.282 111.262 64.114 111.712C64.946 112.163 65.5874 112.804 66.038 113.636C66.506 114.451 66.74 115.396 66.74 116.47C66.74 117.528 66.506 118.464 66.038 119.278C65.57 120.093 64.9027 120.726 64.036 121.176C63.1867 121.61 62.1987 121.826 61.072 121.826H56.912C56.8254 121.826 56.782 121.87 56.782 121.956V128.95C56.782 129.037 56.7474 129.115 56.678 129.184C56.626 129.236 56.5567 129.262 56.47 129.262H54.078C53.9914 129.262 53.9134 129.236 53.844 129.184C53.792 129.115 53.766 129.037 53.766 128.95V111.348C53.766 111.262 53.792 111.192 53.844 111.14C53.9134 111.071 53.9914 111.036 54.078 111.036H61.228ZM60.786 119.382C61.67 119.382 62.3807 119.122 62.918 118.602C63.4554 118.082 63.724 117.398 63.724 116.548C63.724 115.682 63.4554 114.98 62.918 114.442C62.3807 113.905 61.67 113.636 60.786 113.636H56.912C56.8254 113.636 56.782 113.68 56.782 113.766V119.252C56.782 119.339 56.8254 119.382 56.912 119.382H60.786ZM69.6969 129.262C69.6103 129.262 69.5323 129.236 69.4629 129.184C69.4109 129.115 69.3849 129.037 69.3849 128.95V111.374C69.3849 111.288 69.4109 111.218 69.4629 111.166C69.5323 111.097 69.6103 111.062 69.6969 111.062H72.0889C72.1756 111.062 72.2449 111.097 72.2969 111.166C72.3663 111.218 72.4009 111.288 72.4009 111.374V126.532C72.4009 126.619 72.4443 126.662 72.5309 126.662H81.2409C81.3276 126.662 81.3969 126.697 81.4489 126.766C81.5183 126.818 81.5529 126.888 81.5529 126.974V128.95C81.5529 129.037 81.5183 129.115 81.4489 129.184C81.3969 129.236 81.3276 129.262 81.2409 129.262H69.6969ZM96.208 129.262C96.0346 129.262 95.922 129.176 95.87 129.002L95.012 126.22C94.9773 126.151 94.934 126.116 94.882 126.116H88.018C87.966 126.116 87.9226 126.151 87.888 126.22L87.03 129.002C86.978 129.176 86.8653 129.262 86.692 129.262H84.092C83.988 129.262 83.91 129.236 83.858 129.184C83.806 129.115 83.7973 129.02 83.832 128.898L89.474 111.322C89.526 111.149 89.6386 111.062 89.812 111.062H93.062C93.2353 111.062 93.348 111.149 93.4 111.322L99.068 128.898C99.0853 128.933 99.094 128.976 99.094 129.028C99.094 129.184 98.9986 129.262 98.808 129.262H96.208ZM88.694 123.594C88.6766 123.698 88.7113 123.75 88.798 123.75H94.076C94.18 123.75 94.2146 123.698 94.18 123.594L91.502 114.884C91.4846 114.815 91.4586 114.78 91.424 114.78C91.3893 114.78 91.3633 114.815 91.346 114.884L88.694 123.594ZM106.593 129.47C105.241 129.47 104.062 129.254 103.057 128.82C102.052 128.387 101.272 127.78 100.717 127C100.18 126.22 99.911 125.302 99.911 124.244V123.594C99.911 123.508 99.937 123.438 99.989 123.386C100.058 123.317 100.136 123.282 100.223 123.282H102.537C102.624 123.282 102.693 123.317 102.745 123.386C102.814 123.438 102.849 123.508 102.849 123.594V124.088C102.849 124.886 103.204 125.553 103.915 126.09C104.626 126.61 105.596 126.87 106.827 126.87C107.884 126.87 108.682 126.645 109.219 126.194C109.756 125.744 110.025 125.163 110.025 124.452C110.025 123.967 109.878 123.56 109.583 123.23C109.288 122.884 108.864 122.572 108.309 122.294C107.772 122.017 106.957 121.67 105.865 121.254C104.634 120.804 103.638 120.379 102.875 119.98C102.112 119.582 101.471 119.044 100.951 118.368C100.448 117.675 100.197 116.817 100.197 115.794C100.197 114.269 100.752 113.064 101.861 112.18C102.97 111.296 104.452 110.854 106.307 110.854C107.607 110.854 108.751 111.08 109.739 111.53C110.744 111.981 111.524 112.614 112.079 113.428C112.634 114.226 112.911 115.153 112.911 116.21V116.652C112.911 116.739 112.876 116.817 112.807 116.886C112.755 116.938 112.686 116.964 112.599 116.964H110.259C110.172 116.964 110.094 116.938 110.025 116.886C109.973 116.817 109.947 116.739 109.947 116.652V116.366C109.947 115.552 109.609 114.867 108.933 114.312C108.274 113.74 107.356 113.454 106.177 113.454C105.224 113.454 104.478 113.654 103.941 114.052C103.421 114.451 103.161 115.014 103.161 115.742C103.161 116.262 103.3 116.687 103.577 117.016C103.854 117.346 104.27 117.649 104.825 117.926C105.38 118.186 106.238 118.524 107.399 118.94C108.63 119.408 109.609 119.833 110.337 120.214C111.082 120.596 111.715 121.133 112.235 121.826C112.772 122.502 113.041 123.352 113.041 124.374C113.041 125.934 112.46 127.174 111.299 128.092C110.155 129.011 108.586 129.47 106.593 129.47ZM125.984 111.374C125.984 111.288 126.01 111.218 126.062 111.166C126.132 111.097 126.21 111.062 126.296 111.062H128.688C128.775 111.062 128.844 111.097 128.896 111.166C128.966 111.218 129 111.288 129 111.374V128.95C129 129.037 128.966 129.115 128.896 129.184C128.844 129.236 128.775 129.262 128.688 129.262H126.296C126.21 129.262 126.132 129.236 126.062 129.184C126.01 129.115 125.984 129.037 125.984 128.95V121.514C125.984 121.428 125.941 121.384 125.854 121.384H119.224C119.138 121.384 119.094 121.428 119.094 121.514V128.95C119.094 129.037 119.06 129.115 118.99 129.184C118.938 129.236 118.869 129.262 118.782 129.262H116.39C116.304 129.262 116.226 129.236 116.156 129.184C116.104 129.115 116.078 129.037 116.078 128.95V111.374C116.078 111.288 116.104 111.218 116.156 111.166C116.226 111.097 116.304 111.062 116.39 111.062H118.782C118.869 111.062 118.938 111.097 118.99 111.166C119.06 111.218 119.094 111.288 119.094 111.374V118.654C119.094 118.741 119.138 118.784 119.224 118.784H125.854C125.941 118.784 125.984 118.741 125.984 118.654V111.374Z" fill="#303030"/>
<defs>
<linearGradient id="paint0_linear_348_1848" x1="0" y1="82.8815" x2="165.588" y2="82.8815" gradientUnits="userSpaceOnUse">
<stop stop-color="#EED75B"/>
<stop offset="1" stop-color="#C5A708"/>
</linearGradient>
<linearGradient id="paint1_linear_348_1848" x1="65.6219" y1="83.4962" x2="99.9661" y2="83.4962" gradientUnits="userSpaceOnUse">
<stop stop-color="#EED75B"/>
<stop offset="1" stop-color="#C5A708"/>
</linearGradient>
</defs>
</svg>
