<svg width="213" height="213" viewBox="0 0 213 213" fill="none" xmlns="http://www.w3.org/2000/svg">
<circle cx="4.74593" cy="4.74593" r="4.74593" transform="matrix(0.706733 0.70748 -0.706733 0.70748 177.604 28.8081)" fill="#A8B0B2"/>
<circle cx="4.74593" cy="4.74593" r="4.74593" transform="matrix(0.706733 0.70748 -0.706733 0.70748 36.2153 170.346)" fill="#A8B0B2"/>
<circle cx="4.74593" cy="4.74593" r="4.74593" transform="matrix(0.706733 0.70748 -0.706733 0.70748 176.742 169.483)" fill="#A8B0B2"/>
<circle cx="4.74593" cy="4.74593" r="4.74593" transform="matrix(0.706733 0.70748 -0.706733 0.70748 36.2153 28.8081)" fill="#A8B0B2"/>
<circle cx="4.74593" cy="4.74593" r="4.74593" transform="matrix(0.706733 0.70748 -0.706733 0.70748 106.685 0)" fill="#A8B0B2"/>
<circle cx="4.74593" cy="4.74593" r="4.74593" transform="matrix(0.706733 0.70748 -0.706733 0.70748 106.685 199.435)" fill="#A8B0B2"/>
<circle cx="4.74593" cy="4.74593" r="4.74593" transform="matrix(0.706733 0.70748 -0.706733 0.70748 6.70819 100.083)" fill="#A8B0B2"/>
<circle cx="4.74593" cy="4.74593" r="4.74593" transform="matrix(0.706733 0.70748 -0.706733 0.70748 205.932 100.083)" fill="#A8B0B2"/>
<path d="M202.306 106.432C202.306 159.506 159.328 202.524 106.32 202.524C53.3125 202.524 10.334 159.506 10.334 106.432C10.334 53.3581 53.3125 10.3403 106.32 10.3403C159.328 10.3403 202.306 53.3581 202.306 106.432Z" fill="#F5F5F5" stroke="#9CABB0" stroke-width="8"/>
<path d="M181.924 106.886C181.924 148.449 148.269 182.126 106.773 182.126C65.2767 182.126 31.6213 148.449 31.6213 106.886C31.6213 65.3227 65.2767 31.6455 106.773 31.6455C148.269 31.6455 181.924 65.3227 181.924 106.886Z" fill="#F9FAFB" stroke="#606060" stroke-width="18"/>
<path d="M85.977 100.193C86.0637 100.193 86.133 100.227 86.185 100.297C86.2544 100.349 86.289 100.418 86.289 100.505V102.507C86.289 102.593 86.2544 102.671 86.185 102.741C86.133 102.793 86.0637 102.819 85.977 102.819H81.193C81.1064 102.819 81.063 102.862 81.063 102.949V118.081C81.063 118.167 81.0284 118.245 80.959 118.315C80.907 118.367 80.8377 118.393 80.751 118.393H78.359C78.2724 118.393 78.1944 118.367 78.125 118.315C78.073 118.245 78.047 118.167 78.047 118.081V102.949C78.047 102.862 78.0037 102.819 77.917 102.819H73.315C73.2284 102.819 73.1504 102.793 73.081 102.741C73.029 102.671 73.003 102.593 73.003 102.507V100.505C73.003 100.418 73.029 100.349 73.081 100.297C73.1504 100.227 73.2284 100.193 73.315 100.193H85.977ZM94.3216 118.653C93.0216 118.653 91.8689 118.393 90.8636 117.873C89.8583 117.335 89.0783 116.581 88.5236 115.611C87.9863 114.64 87.7176 113.522 87.7176 112.257V106.329C87.7176 105.081 87.9949 103.98 88.5496 103.027C89.1043 102.056 89.8756 101.311 90.8636 100.791C91.8689 100.253 93.0216 99.9846 94.3216 99.9846C95.6389 99.9846 96.7916 100.253 97.7796 100.791C98.7849 101.311 99.5649 102.056 100.12 103.027C100.674 103.98 100.952 105.081 100.952 106.329V112.257C100.952 113.522 100.674 114.64 100.12 115.611C99.5649 116.581 98.7849 117.335 97.7796 117.873C96.7916 118.393 95.6389 118.653 94.3216 118.653ZM94.3216 116.053C95.4136 116.053 96.2889 115.715 96.9476 115.039C97.6063 114.363 97.9356 113.47 97.9356 112.361V106.303C97.9356 105.176 97.6063 104.275 96.9476 103.599C96.2889 102.923 95.4136 102.585 94.3216 102.585C93.2469 102.585 92.3803 102.923 91.7216 103.599C91.0629 104.275 90.7336 105.176 90.7336 106.303V112.361C90.7336 113.47 91.0629 114.363 91.7216 115.039C92.3803 115.715 93.2469 116.053 94.3216 116.053ZM116.034 100.401C116.121 100.262 116.242 100.193 116.398 100.193H118.79C118.877 100.193 118.946 100.227 118.998 100.297C119.067 100.349 119.102 100.418 119.102 100.505V118.081C119.102 118.167 119.067 118.245 118.998 118.315C118.946 118.367 118.877 118.393 118.79 118.393H116.398C116.311 118.393 116.233 118.367 116.164 118.315C116.112 118.245 116.086 118.167 116.086 118.081V105.679C116.086 105.627 116.06 105.592 116.008 105.575C115.973 105.557 115.947 105.575 115.93 105.627L112.68 110.619C112.593 110.757 112.472 110.827 112.316 110.827H111.12C110.964 110.827 110.843 110.757 110.756 110.619L107.48 105.653C107.463 105.601 107.428 105.583 107.376 105.601C107.341 105.618 107.324 105.653 107.324 105.705V118.081C107.324 118.167 107.289 118.245 107.22 118.315C107.168 118.367 107.099 118.393 107.012 118.393H104.62C104.533 118.393 104.455 118.367 104.386 118.315C104.334 118.245 104.308 118.167 104.308 118.081V100.505C104.308 100.418 104.334 100.349 104.386 100.297C104.455 100.227 104.533 100.193 104.62 100.193H107.012C107.168 100.193 107.289 100.262 107.376 100.401L111.614 106.823C111.649 106.857 111.683 106.875 111.718 106.875C111.753 106.875 111.779 106.857 111.796 106.823L116.034 100.401ZM131.531 115.637C131.496 115.671 131.479 115.706 131.479 115.741C131.496 115.775 131.531 115.793 131.583 115.793H138.993C139.08 115.793 139.149 115.827 139.201 115.897C139.27 115.949 139.305 116.018 139.305 116.105V118.081C139.305 118.167 139.27 118.245 139.201 118.315C139.149 118.367 139.08 118.393 138.993 118.393H127.813C127.726 118.393 127.648 118.367 127.579 118.315C127.527 118.245 127.501 118.167 127.501 118.081V116.209C127.501 116.053 127.553 115.923 127.657 115.819C128.974 114.415 130.5 112.69 132.233 110.645L133.455 109.215C135.05 107.36 135.847 105.956 135.847 105.003C135.847 104.292 135.596 103.711 135.093 103.261C134.59 102.81 133.94 102.585 133.143 102.585C132.346 102.585 131.696 102.81 131.193 103.261C130.708 103.711 130.465 104.309 130.465 105.055V105.731C130.465 105.817 130.43 105.895 130.361 105.965C130.309 106.017 130.24 106.043 130.153 106.043H127.735C127.648 106.043 127.57 106.017 127.501 105.965C127.449 105.895 127.423 105.817 127.423 105.731V104.613C127.458 103.677 127.726 102.862 128.229 102.169C128.732 101.475 129.408 100.938 130.257 100.557C131.124 100.175 132.086 99.9846 133.143 99.9846C134.304 99.9846 135.318 100.201 136.185 100.635C137.052 101.068 137.719 101.666 138.187 102.429C138.655 103.174 138.889 104.015 138.889 104.951C138.889 106.372 138.135 108.01 136.627 109.865C135.795 110.905 134.426 112.465 132.519 114.545L131.531 115.637Z" fill="#303030"/>
</svg>
