<svg width="187" height="190" viewBox="0 0 187 190" fill="none" xmlns="http://www.w3.org/2000/svg">
<g filter="url(#filter0_d_351_559)">
<circle cx="4.03909" cy="4.03909" r="4.03909" transform="matrix(0.706733 0.70748 -0.706733 0.70748 154.152 24.5176)" fill="#A8B0B2"/>
<circle cx="4.03909" cy="4.03909" r="4.03909" transform="matrix(0.706733 0.70748 -0.706733 0.70748 33.8215 144.976)" fill="#A8B0B2"/>
<circle cx="4.03909" cy="4.03909" r="4.03909" transform="matrix(0.706733 0.70748 -0.706733 0.70748 153.419 144.241)" fill="#A8B0B2"/>
<circle cx="4.03909" cy="4.03909" r="4.03909" transform="matrix(0.706733 0.70748 -0.706733 0.70748 33.8215 24.5176)" fill="#A8B0B2"/>
<circle cx="4.03909" cy="4.03909" r="4.03909" transform="matrix(0.706733 0.70748 -0.706733 0.70748 93.7958 0)" fill="#A8B0B2"/>
<circle cx="4.03909" cy="4.03909" r="4.03909" transform="matrix(0.706733 0.70748 -0.706733 0.70748 93.7958 169.731)" fill="#A8B0B2"/>
<circle cx="4.03909" cy="4.03909" r="4.03909" transform="matrix(0.706733 0.70748 -0.706733 0.70748 8.70911 85.1768)" fill="#A8B0B2"/>
<circle cx="4.03909" cy="4.03909" r="4.03909" transform="matrix(0.706733 0.70748 -0.706733 0.70748 178.261 85.1768)" fill="#A8B0B2"/>
<path d="M175.035 90.1693C175.035 135.034 138.704 171.398 93.8966 171.398C49.0891 171.398 12.7582 135.034 12.7582 90.1693C12.7582 45.3041 49.0891 8.94092 93.8966 8.94092C138.704 8.94092 175.035 45.3041 175.035 90.1693Z" fill="#F9FAFB" stroke="#9CABB0" stroke-width="8"/>
<path d="M155.486 90.8178C155.486 124.968 127.834 152.636 93.743 152.636C59.6523 152.636 32 124.968 32 90.8178C32 56.6678 59.6523 29 93.743 29C127.834 29 155.486 56.6678 155.486 90.8178Z" stroke="#606060" stroke-width="18"/>
<path d="M75.7194 85.2053C75.8061 85.2053 75.8754 85.2399 75.9274 85.3093C75.9968 85.3613 76.0314 85.4306 76.0314 85.5173V87.5193C76.0314 87.6059 75.9968 87.6839 75.9274 87.7533C75.8754 87.8053 75.8061 87.8313 75.7194 87.8313H70.9354C70.8488 87.8313 70.8054 87.8746 70.8054 87.9613V103.093C70.8054 103.18 70.7708 103.258 70.7014 103.327C70.6494 103.379 70.5801 103.405 70.4934 103.405H68.1014C68.0148 103.405 67.9368 103.379 67.8674 103.327C67.8154 103.258 67.7894 103.18 67.7894 103.093V87.9613C67.7894 87.8746 67.7461 87.8313 67.6594 87.8313H63.0574C62.9708 87.8313 62.8928 87.8053 62.8234 87.7533C62.7714 87.6839 62.7454 87.6059 62.7454 87.5193V85.5173C62.7454 85.4306 62.7714 85.3613 62.8234 85.3093C62.8928 85.2399 62.9708 85.2053 63.0574 85.2053H75.7194ZM84.064 103.665C82.764 103.665 81.6113 103.405 80.606 102.885C79.6007 102.348 78.8207 101.594 78.266 100.623C77.7287 99.6526 77.46 98.5346 77.46 97.2693V91.3413C77.46 90.0933 77.7373 88.9926 78.292 88.0393C78.8467 87.0686 79.618 86.3233 80.606 85.8033C81.6113 85.2659 82.764 84.9973 84.064 84.9973C85.3813 84.9973 86.534 85.2659 87.522 85.8033C88.5273 86.3233 89.3073 87.0686 89.862 88.0393C90.4167 88.9926 90.694 90.0933 90.694 91.3413V97.2693C90.694 98.5346 90.4167 99.6526 89.862 100.623C89.3073 101.594 88.5273 102.348 87.522 102.885C86.534 103.405 85.3813 103.665 84.064 103.665ZM84.064 101.065C85.156 101.065 86.0313 100.727 86.69 100.051C87.3487 99.3753 87.678 98.4826 87.678 97.3733V91.3153C87.678 90.1886 87.3487 89.2873 86.69 88.6113C86.0313 87.9353 85.156 87.5973 84.064 87.5973C82.9893 87.5973 82.1227 87.9353 81.464 88.6113C80.8053 89.2873 80.476 90.1886 80.476 91.3153V97.3733C80.476 98.4826 80.8053 99.3753 81.464 100.051C82.1227 100.727 82.9893 101.065 84.064 101.065ZM105.776 85.4133C105.863 85.2746 105.984 85.2053 106.14 85.2053H108.532C108.619 85.2053 108.688 85.2399 108.74 85.3093C108.81 85.3613 108.844 85.4306 108.844 85.5173V103.093C108.844 103.18 108.81 103.258 108.74 103.327C108.688 103.379 108.619 103.405 108.532 103.405H106.14C106.054 103.405 105.976 103.379 105.906 103.327C105.854 103.258 105.828 103.18 105.828 103.093V90.6913C105.828 90.6393 105.802 90.6046 105.75 90.5873C105.716 90.5699 105.69 90.5873 105.672 90.6393L102.422 95.6313C102.336 95.7699 102.214 95.8393 102.058 95.8393H100.862C100.706 95.8393 100.585 95.7699 100.498 95.6313L97.2224 90.6653C97.2051 90.6133 97.1704 90.5959 97.1184 90.6133C97.0838 90.6306 97.0664 90.6653 97.0664 90.7173V103.093C97.0664 103.18 97.0318 103.258 96.9624 103.327C96.9104 103.379 96.8411 103.405 96.7544 103.405H94.3624C94.2758 103.405 94.1978 103.379 94.1284 103.327C94.0764 103.258 94.0504 103.18 94.0504 103.093V85.5173C94.0504 85.4306 94.0764 85.3613 94.1284 85.3093C94.1978 85.2399 94.2758 85.2053 94.3624 85.2053H96.7544C96.9104 85.2053 97.0318 85.2746 97.1184 85.4133L101.356 91.8353C101.391 91.8699 101.426 91.8873 101.46 91.8873C101.495 91.8873 101.521 91.8699 101.538 91.8353L105.776 85.4133ZM120.103 85.2833C120.242 85.2313 120.372 85.2053 120.493 85.2053H122.989C123.076 85.2053 123.145 85.2399 123.197 85.3093C123.267 85.3613 123.301 85.4306 123.301 85.5173V103.093C123.301 103.18 123.267 103.258 123.197 103.327C123.145 103.379 123.076 103.405 122.989 103.405H120.597C120.511 103.405 120.433 103.379 120.363 103.327C120.311 103.258 120.285 103.18 120.285 103.093V88.3253C120.285 88.2906 120.268 88.2646 120.233 88.2473C120.199 88.2126 120.164 88.2039 120.129 88.2213L117.529 89.0273C117.495 89.0446 117.451 89.0533 117.399 89.0533C117.33 89.0533 117.269 89.0273 117.217 88.9753C117.183 88.9233 117.165 88.8539 117.165 88.7673L117.087 87.0513C117.087 86.8779 117.157 86.7566 117.295 86.6873L120.103 85.2833Z" fill="#303030"/>
</g>
<defs>
<filter id="filter0_d_351_559" x="0.672119" y="1.67383" width="185.626" height="187.813" filterUnits="userSpaceOnUse" color-interpolation-filters="sRGB">
<feFlood flood-opacity="0" result="BackgroundImageFix"/>
<feColorMatrix in="SourceAlpha" type="matrix" values="0 0 0 0 0 0 0 0 0 0 0 0 0 0 0 0 0 0 127 0" result="hardAlpha"/>
<feOffset dy="6"/>
<feGaussianBlur stdDeviation="2"/>
<feComposite in2="hardAlpha" operator="out"/>
<feColorMatrix type="matrix" values="0 0 0 0 0 0 0 0 0 0 0 0 0 0 0 0 0 0 0.25 0"/>
<feBlend mode="normal" in2="BackgroundImageFix" result="effect1_dropShadow_351_559"/>
<feBlend mode="normal" in="SourceGraphic" in2="effect1_dropShadow_351_559" result="shape"/>
</filter>
</defs>
</svg>
