<svg width="218" height="221" viewBox="0 0 218 221" fill="none" xmlns="http://www.w3.org/2000/svg">
<g filter="url(#filter0_d_351_547)">
<circle cx="4.74593" cy="4.74593" r="4.74593" transform="matrix(0.706733 0.70748 -0.706733 0.70748 180.604 28.8081)" fill="#A8B0B2"/>
<circle cx="4.74593" cy="4.74593" r="4.74593" transform="matrix(0.706733 0.70748 -0.706733 0.70748 39.2153 170.346)" fill="#A8B0B2"/>
<circle cx="4.74593" cy="4.74593" r="4.74593" transform="matrix(0.706733 0.70748 -0.706733 0.70748 179.742 169.483)" fill="#A8B0B2"/>
<circle cx="4.74593" cy="4.74593" r="4.74593" transform="matrix(0.706733 0.70748 -0.706733 0.70748 39.2153 28.8081)" fill="#A8B0B2"/>
<circle cx="4.74593" cy="4.74593" r="4.74593" transform="matrix(0.706733 0.70748 -0.706733 0.70748 109.685 0)" fill="#A8B0B2"/>
<circle cx="4.74593" cy="4.74593" r="4.74593" transform="matrix(0.706733 0.70748 -0.706733 0.70748 109.685 199.435)" fill="#A8B0B2"/>
<circle cx="4.74593" cy="4.74593" r="4.74593" transform="matrix(0.706733 0.70748 -0.706733 0.70748 9.70819 100.083)" fill="#A8B0B2"/>
<circle cx="4.74593" cy="4.74593" r="4.74593" transform="matrix(0.706733 0.70748 -0.706733 0.70748 208.932 100.083)" fill="#A8B0B2"/>
<path d="M205.306 106.432C205.306 159.506 162.328 202.524 109.32 202.524C56.3125 202.524 13.334 159.506 13.334 106.432C13.334 53.3581 56.3125 10.3403 109.32 10.3403C162.328 10.3403 205.306 53.3581 205.306 106.432Z" fill="#F5F5F5" stroke="#9CABB0" stroke-width="8"/>
<path d="M184.924 106.886C184.924 148.449 151.269 182.126 109.773 182.126C68.2767 182.126 34.6213 148.449 34.6213 106.886C34.6213 65.3227 68.2767 31.6455 109.773 31.6455C151.269 31.6455 184.924 65.3227 184.924 106.886Z" fill="#F9FAFB" stroke="#909090" stroke-width="18"/>
<path d="M88.977 100.193C89.0637 100.193 89.133 100.227 89.185 100.297C89.2544 100.349 89.289 100.418 89.289 100.505V102.507C89.289 102.593 89.2544 102.671 89.185 102.741C89.133 102.793 89.0637 102.819 88.977 102.819H84.193C84.1064 102.819 84.063 102.862 84.063 102.949V118.081C84.063 118.167 84.0284 118.245 83.959 118.315C83.907 118.367 83.8377 118.393 83.751 118.393H81.359C81.2724 118.393 81.1944 118.367 81.125 118.315C81.073 118.245 81.047 118.167 81.047 118.081V102.949C81.047 102.862 81.0037 102.819 80.917 102.819H76.315C76.2284 102.819 76.1504 102.793 76.081 102.741C76.029 102.671 76.003 102.593 76.003 102.507V100.505C76.003 100.418 76.029 100.349 76.081 100.297C76.1504 100.227 76.2284 100.193 76.315 100.193H88.977ZM97.3216 118.653C96.0216 118.653 94.8689 118.393 93.8636 117.873C92.8583 117.335 92.0783 116.581 91.5236 115.611C90.9863 114.64 90.7176 113.522 90.7176 112.257V106.329C90.7176 105.081 90.9949 103.98 91.5496 103.027C92.1043 102.056 92.8756 101.311 93.8636 100.791C94.8689 100.253 96.0216 99.9846 97.3216 99.9846C98.6389 99.9846 99.7916 100.253 100.78 100.791C101.785 101.311 102.565 102.056 103.12 103.027C103.674 103.98 103.952 105.081 103.952 106.329V112.257C103.952 113.522 103.674 114.64 103.12 115.611C102.565 116.581 101.785 117.335 100.78 117.873C99.7916 118.393 98.6389 118.653 97.3216 118.653ZM97.3216 116.053C98.4136 116.053 99.2889 115.715 99.9476 115.039C100.606 114.363 100.936 113.47 100.936 112.361V106.303C100.936 105.176 100.606 104.275 99.9476 103.599C99.2889 102.923 98.4136 102.585 97.3216 102.585C96.2469 102.585 95.3803 102.923 94.7216 103.599C94.0629 104.275 93.7336 105.176 93.7336 106.303V112.361C93.7336 113.47 94.0629 114.363 94.7216 115.039C95.3803 115.715 96.2469 116.053 97.3216 116.053ZM119.034 100.401C119.121 100.262 119.242 100.193 119.398 100.193H121.79C121.877 100.193 121.946 100.227 121.998 100.297C122.067 100.349 122.102 100.418 122.102 100.505V118.081C122.102 118.167 122.067 118.245 121.998 118.315C121.946 118.367 121.877 118.393 121.79 118.393H119.398C119.311 118.393 119.233 118.367 119.164 118.315C119.112 118.245 119.086 118.167 119.086 118.081V105.679C119.086 105.627 119.06 105.592 119.008 105.575C118.973 105.557 118.947 105.575 118.93 105.627L115.68 110.619C115.593 110.757 115.472 110.827 115.316 110.827H114.12C113.964 110.827 113.843 110.757 113.756 110.619L110.48 105.653C110.463 105.601 110.428 105.583 110.376 105.601C110.341 105.618 110.324 105.653 110.324 105.705V118.081C110.324 118.167 110.289 118.245 110.22 118.315C110.168 118.367 110.099 118.393 110.012 118.393H107.62C107.533 118.393 107.455 118.367 107.386 118.315C107.334 118.245 107.308 118.167 107.308 118.081V100.505C107.308 100.418 107.334 100.349 107.386 100.297C107.455 100.227 107.533 100.193 107.62 100.193H110.012C110.168 100.193 110.289 100.262 110.376 100.401L114.614 106.823C114.649 106.857 114.683 106.875 114.718 106.875C114.753 106.875 114.779 106.857 114.796 106.823L119.034 100.401ZM134.531 115.637C134.496 115.671 134.479 115.706 134.479 115.741C134.496 115.775 134.531 115.793 134.583 115.793H141.993C142.08 115.793 142.149 115.827 142.201 115.897C142.27 115.949 142.305 116.018 142.305 116.105V118.081C142.305 118.167 142.27 118.245 142.201 118.315C142.149 118.367 142.08 118.393 141.993 118.393H130.813C130.726 118.393 130.648 118.367 130.579 118.315C130.527 118.245 130.501 118.167 130.501 118.081V116.209C130.501 116.053 130.553 115.923 130.657 115.819C131.974 114.415 133.5 112.69 135.233 110.645L136.455 109.215C138.05 107.36 138.847 105.956 138.847 105.003C138.847 104.292 138.596 103.711 138.093 103.261C137.59 102.81 136.94 102.585 136.143 102.585C135.346 102.585 134.696 102.81 134.193 103.261C133.708 103.711 133.465 104.309 133.465 105.055V105.731C133.465 105.817 133.43 105.895 133.361 105.965C133.309 106.017 133.24 106.043 133.153 106.043H130.735C130.648 106.043 130.57 106.017 130.501 105.965C130.449 105.895 130.423 105.817 130.423 105.731V104.613C130.458 103.677 130.726 102.862 131.229 102.169C131.732 101.475 132.408 100.938 133.257 100.557C134.124 100.175 135.086 99.9846 136.143 99.9846C137.304 99.9846 138.318 100.201 139.185 100.635C140.052 101.068 140.719 101.666 141.187 102.429C141.655 103.174 141.889 104.015 141.889 104.951C141.889 106.372 141.135 108.01 139.627 109.865C138.795 110.905 137.426 112.465 135.519 114.545L134.531 115.637Z" fill="#303030"/>
</g>
<defs>
<filter id="filter0_d_351_547" x="0.964783" y="1.9668" width="216.711" height="218.932" filterUnits="userSpaceOnUse" color-interpolation-filters="sRGB">
<feFlood flood-opacity="0" result="BackgroundImageFix"/>
<feColorMatrix in="SourceAlpha" type="matrix" values="0 0 0 0 0 0 0 0 0 0 0 0 0 0 0 0 0 0 127 0" result="hardAlpha"/>
<feOffset dy="6"/>
<feGaussianBlur stdDeviation="2"/>
<feComposite in2="hardAlpha" operator="out"/>
<feColorMatrix type="matrix" values="0 0 0 0 0 0 0 0 0 0 0 0 0 0 0 0 0 0 0.25 0"/>
<feBlend mode="normal" in2="BackgroundImageFix" result="effect1_dropShadow_351_547"/>
<feBlend mode="normal" in="SourceGraphic" in2="effect1_dropShadow_351_547" result="shape"/>
</filter>
</defs>
</svg>
