<svg width="34" height="34" viewBox="0 0 34 34" fill="none" xmlns="http://www.w3.org/2000/svg">
<path d="M16.6667 16.6667C14.375 16.6667 12.4132 15.8507 10.7812 14.2187C9.14931 12.5868 8.33333 10.625 8.33333 8.33333C8.33333 6.04167 9.14931 4.07986 10.7812 2.44792C12.4132 0.815973 14.375 0 16.6667 0C18.9583 0 20.9201 0.815973 22.5521 2.44792C24.184 4.07986 25 6.04167 25 8.33333C25 10.625 24.184 12.5868 22.5521 14.2187C20.9201 15.8507 18.9583 16.6667 16.6667 16.6667ZM0 33.3333V27.5C0 26.3194 0.304167 25.234 0.9125 24.2437C1.52083 23.2535 2.32778 22.4986 3.33333 21.9792C5.48611 20.9028 7.67361 20.0951 9.89583 19.5562C12.1181 19.0174 14.375 18.7486 16.6667 18.75C18.9583 18.75 21.2153 19.0194 23.4375 19.5583C25.6597 20.0972 27.8472 20.9042 30 21.9792C31.0069 22.5 31.8146 23.2556 32.4229 24.2458C33.0312 25.2361 33.3347 26.3208 33.3333 27.5V33.3333H0Z" fill="white"/>
</svg>
