<svg width="34" height="34" viewBox="0 0 34 34" fill="none" xmlns="http://www.w3.org/2000/svg">
<path d="M15.3 20.4H1.7V30.6C1.7 31.5017 2.05821 32.3665 2.69584 33.0042C3.33346 33.6418 4.19826 34 5.1 34H28.9C29.8017 34 30.6665 33.6418 31.3042 33.0042C31.9418 32.3665 32.3 31.5017 32.3 30.6V20.4H18.7V23.8H15.3V20.4ZM15.3 18.7H0V8.5C0 6.63 1.53 5.1 3.4 5.1H10.2V3.4C10.2 2.49826 10.5582 1.63346 11.1958 0.995837C11.8335 0.358213 12.6983 0 13.6 0L20.4 0C21.3017 0 22.1665 0.358213 22.8042 0.995837C23.4418 1.63346 23.8 2.49826 23.8 3.4V5.1H30.6C31.5017 5.1 32.3665 5.45821 33.0042 6.09584C33.6418 6.73346 34 7.59826 34 8.5V18.7H18.7V15.3H15.3V18.7ZM20.4 5.1V3.4H13.6V5.1H20.4Z" fill="white"/>
</svg>
