<svg width="31" height="41" viewBox="0 0 31 41" fill="none" xmlns="http://www.w3.org/2000/svg">
<path d="M29.5625 0.8125H6.00781C5.81445 0.8125 5.65625 0.970703 5.65625 1.16406V3.625C5.65625 3.81836 5.81445 3.97656 6.00781 3.97656H27.8047V34.2109C27.8047 34.4043 27.9629 34.5625 28.1562 34.5625H30.6172C30.8105 34.5625 30.9688 34.4043 30.9688 34.2109V2.21875C30.9688 1.44092 30.3403 0.8125 29.5625 0.8125ZM23.9375 6.4375H1.4375C0.659668 6.4375 0.03125 7.06592 0.03125 7.84375V31.1655C0.03125 31.5391 0.180664 31.895 0.444336 32.1587L8.06006 39.7744C8.15674 39.8711 8.2666 39.9502 8.38525 40.0161V40.0996H8.56982C8.72363 40.1567 8.88623 40.1875 9.05322 40.1875H23.9375C24.7153 40.1875 25.3438 39.5591 25.3438 38.7812V7.84375C25.3438 7.06592 24.7153 6.4375 23.9375 6.4375ZM8.38086 35.626L4.59717 31.8379H8.38086V35.626ZM22.1797 37.0234H11.1934V30.7832C11.1934 29.812 10.4067 29.0254 9.43555 29.0254H3.19531V9.60156H22.1797V37.0234Z" fill="#303030"/>
</svg>
