<svg width="52" height="28" viewBox="0 0 52 28" fill="none" xmlns="http://www.w3.org/2000/svg">
<path d="M48.3907 0.623119L25.9977 22.7739L3.60476 0.623119C3.20468 0.226558 2.66759 0.00454622 2.10832 0.00454622C1.54904 0.00454622 1.01196 0.226558 0.61187 0.623119C0.418148 0.81573 0.264247 1.04563 0.159182 1.29936C0.054117 1.55308 0 1.82553 0 2.10075C0 2.37596 0.054117 2.64841 0.159182 2.90214C0.264247 3.15586 0.418148 3.38577 0.61187 3.57838L24.4341 27.1477C24.8524 27.5615 25.4135 27.7931 25.9977 27.7931C26.5819 27.7931 27.143 27.5615 27.5614 27.1477L51.3835 3.58293C51.5786 3.39017 51.7337 3.1597 51.8396 2.90514C51.9455 2.65057 52 2.37706 52 2.10075C52 1.82444 51.9455 1.55092 51.8396 1.29636C51.7337 1.04179 51.5786 0.811326 51.3835 0.61857C50.9835 0.222009 50.4464 0 49.8871 0C49.3278 0 48.7907 0.222009 48.3907 0.61857V0.623119Z" fill="#DFDFDF"/>
</svg>
