<svg width="65" height="65" viewBox="0 0 65 65" fill="none" xmlns="http://www.w3.org/2000/svg">
<path d="M32.5 64.1031C49.9539 64.1031 64.1032 49.9539 64.1032 32.4999C64.1032 15.046 49.9539 0.896729 32.5 0.896729C15.046 0.896729 0.896759 15.046 0.896759 32.4999C0.896759 49.9539 15.046 64.1031 32.5 64.1031Z" fill="#182F80"/>
<path d="M60.8822 12.5541L59.4909 16.8162L57.7682 21.6854H54.5862H50.2472L51.0926 19.2748H45H38.5L36.9948 24.2723L35.5197 29.3209L40.445 29.3721H44.7658L42.6592 36.0239L38.3574 36.0501H33.5791L32.3 40.6077L31 45.1391H37.2089H44.1071L44.805 43.2995L45.5028 41.4598L49.2034 40.3L53.8575 38.832L51.8848 45.139L49.912 51.4461C49.8218 51.7517 49.5041 52 49.2034 52H26.3578H3.40543C3.10475 52 2.93366 51.7517 3.02426 51.4449L7.34384 39.1473L11.1188 38.2013L15.2041 37.2553L12.6289 45.1391L17.7172 45.1392L23.196 45.1391L27.1518 31.4297L30.8843 19.2748L26.7111 19.2664H21.0913L20.7052 20.1679L20.0669 21.6854H16.4924H12.6423L15.7553 12.5539C15.8459 12.2471 16.1635 11.9988 16.4651 12H38.9617H60.821C61.1217 12 60.9724 12.2485 60.8822 12.5541Z" fill="white"/>
</svg>
