<svg width="64" height="64" viewBox="0 0 64 64" fill="none" xmlns="http://www.w3.org/2000/svg">
<path d="M31.6032 63.2064C49.0572 63.2064 63.2064 49.0572 63.2064 31.6032C63.2064 14.1492 49.0572 0 31.6032 0C14.1492 0 0 14.1492 0 31.6032C0 49.0572 14.1492 63.2064 31.6032 63.2064Z" fill="white"/>
<path d="M59.9855 11.6573L58.5942 15.9194L56.8715 20.7887H53.6895H49.3505L50.1958 18.3781H44.1033H37.6033L36.0981 23.3755L34.623 28.4242L39.5482 28.4754H43.8691L41.7624 35.1271L37.4607 35.1534H32.6824L31.4033 39.711L30.1033 44.2424H36.3122H43.2104L43.9082 42.4027L44.6061 40.5631L48.3067 39.4033L52.9608 37.9352L50.988 44.2423L49.0153 50.5493C48.9251 50.8549 48.6073 51.1033 48.3067 51.1033H25.461H2.5087C2.20802 51.1033 2.03693 50.8549 2.12753 50.5481L6.44711 38.2506L10.2221 37.3046L14.3074 36.3585L11.7322 44.2424L16.8205 44.2425L22.2993 44.2424L26.2551 30.533L29.9876 18.3781L25.8143 18.3696H20.1946L19.8085 19.2712L19.1701 20.7887H15.5957H11.7456L14.8586 11.6572C14.9492 11.3504 15.2668 11.1021 15.5684 11.1033H38.065H59.9243C60.225 11.1033 60.0757 11.3518 59.9855 11.6573Z" fill="#303030"/>
</svg>
