<svg width="64" height="64" viewBox="0 0 64 64" fill="none" xmlns="http://www.w3.org/2000/svg">
<path d="M63.21 31.605C63.21 49.06 49.06 63.21 31.605 63.21C21.5087 63.21 12.5181 58.4758 6.73198 51.1062H48.3094C48.6101 51.1062 48.9279 50.8578 49.0181 50.5522L52.9638 37.9374L48.3094 39.4055L44.6086 40.5654L43.2128 44.2449H30.105L31.4051 39.7132L32.6843 35.1553H37.4628L41.7648 35.1291L43.8716 28.477H39.5505L34.625 28.4258L36.1001 23.3768L37.6054 18.3791H50.1987L49.3533 20.7898H56.8747L58.5975 15.9203L58.7595 15.4242C61.5859 20.1574 63.21 25.6915 63.21 31.605Z" fill="white"/>
<path d="M55.6595 11.1039H15.5693C15.2677 11.1027 14.9501 11.351 14.8594 11.6578L11.7462 20.7898H19.1712L19.8096 19.2723L20.1957 18.3706H25.8158L29.9893 18.3791L26.2566 30.5347L22.3005 44.2449H11.7329L14.3082 36.3606L10.2227 37.3066L6.44749 38.2527L3.61923 46.3046C1.30801 41.9134 0 36.912 0 31.605C0 14.15 14.15 0 31.605 0C41.237 0 49.8626 4.30873 55.6595 11.1039Z" fill="white"/>
</svg>
