<svg width="48" height="40" viewBox="0 0 48 40" fill="none" xmlns="http://www.w3.org/2000/svg">
<g clip-path="url(#clip0_684_492)">
<path d="M37.736 20C37.736 25.5469 34.3453 30.2969 29.5328 32.3047L28.2516 29.2266C31.861 27.7188 34.4 24.1563 34.4 20C34.4 15.8359 31.861 12.2812 28.2438 10.7734L29.525 7.69531C34.3453 9.70313 37.736 14.4531 37.736 20ZM31.0641 20C31.0641 22.7734 29.3688 25.1484 26.9625 26.1484L25.6813 23.0703C26.8844 22.5703 27.7281 21.3828 27.7281 19.9922C27.7281 18.6094 26.8844 17.4219 25.6813 16.9141L26.9625 13.8359C29.3688 14.8516 31.0641 17.2266 31.0641 20ZM32.0953 38.4609L30.8063 35.3828C36.8297 32.875 41.0641 26.9375 41.0641 20C41.0641 13.0703 36.8297 7.125 30.8063 4.61719L32.0875 1.53906C39.3219 4.55469 44.4 11.6797 44.4 20C44.4 28.3203 39.3219 35.4453 32.0953 38.4609ZM4.40002 28.3359V11.6719H11.0641L22.736 0V40L11.0641 28.3359H4.40002Z" fill="#EEEEEE"/>
</g>
<rect width="16.6662" height="4.8" transform="matrix(0 -1 -1 0 4.80017 28.3374)" fill="#EEEEEE"/>
<defs>
<clipPath id="clip0_684_492">
<rect width="40" height="40" fill="white" transform="matrix(1 0 0 -1 4.40002 40)"/>
</clipPath>
</defs>
</svg>
