<svg width="36" height="36" viewBox="0 0 36 36" fill="none" xmlns="http://www.w3.org/2000/svg">
<rect width="36" height="36" rx="10" fill="#303030"/>
<rect x="3.69226" y="1.84619" width="28.6154" height="28.6154" rx="10" fill="white"/>
<path d="M24.196 10.088C24.196 10.1747 24.1613 10.2527 24.092 10.322C24.04 10.374 23.9707 10.4 23.884 10.4H15.044C14.9573 10.4 14.914 10.4433 14.914 10.53V15.392C14.914 15.4787 14.9573 15.522 15.044 15.522H20.998C21.0847 15.522 21.154 15.5567 21.206 15.626C21.2753 15.678 21.31 15.7473 21.31 15.834V17.81C21.31 17.8967 21.2753 17.9747 21.206 18.044C21.154 18.096 21.0847 18.122 20.998 18.122H15.044C14.9573 18.122 14.914 18.1653 14.914 18.252V25.688C14.914 25.7747 14.8793 25.8527 14.81 25.922C14.758 25.974 14.6887 26 14.602 26H12.21C12.1233 26 12.0453 25.974 11.976 25.922C11.924 25.8527 11.898 25.7747 11.898 25.688V8.112C11.898 8.02533 11.924 7.956 11.976 7.904C12.0453 7.83467 12.1233 7.8 12.21 7.8H23.884C23.9707 7.8 24.04 7.83467 24.092 7.904C24.1613 7.956 24.196 8.02533 24.196 8.112V10.088Z" fill="#303030"/>
</svg>
