<svg width="36" height="36" viewBox="0 0 36 36" fill="none" xmlns="http://www.w3.org/2000/svg">
<rect width="36" height="36" rx="10" fill="#303030"/>
<rect x="3.69232" y="1.84619" width="28.6154" height="28.6154" rx="10" fill="white"/>
<path d="M17.982 26.208C16.682 26.208 15.538 25.9567 14.55 25.454C13.562 24.934 12.7993 24.206 12.262 23.27C11.7247 22.334 11.456 21.2593 11.456 20.046V13.754C11.456 12.5233 11.7247 11.4487 12.262 10.53C12.7993 9.594 13.562 8.87467 14.55 8.372C15.538 7.852 16.682 7.592 17.982 7.592C19.2647 7.592 20.3913 7.84333 21.362 8.346C22.35 8.84867 23.1127 9.53333 23.65 10.4C24.1873 11.2667 24.456 12.246 24.456 13.338V13.546C24.456 13.6327 24.4213 13.7107 24.352 13.78C24.3 13.832 24.2307 13.858 24.144 13.858H21.778C21.6913 13.858 21.6133 13.832 21.544 13.78C21.492 13.7107 21.466 13.6327 21.466 13.546V13.416C21.466 12.48 21.1453 11.7087 20.504 11.102C19.88 10.4953 19.0393 10.192 17.982 10.192C16.9247 10.192 16.0753 10.5127 15.434 11.154C14.7927 11.778 14.472 12.61 14.472 13.65V20.15C14.472 21.19 14.81 22.0307 15.486 22.672C16.162 23.296 17.0373 23.608 18.112 23.608C19.152 23.608 19.9667 23.3393 20.556 22.802C21.1627 22.2473 21.466 21.4933 21.466 20.54V18.928C21.466 18.8413 21.4227 18.798 21.336 18.798H18.138C18.0513 18.798 17.9733 18.772 17.904 18.72C17.852 18.6507 17.826 18.5727 17.826 18.486V16.562C17.826 16.4753 17.852 16.406 17.904 16.354C17.9733 16.2847 18.0513 16.25 18.138 16.25H24.144C24.2307 16.25 24.3 16.2847 24.352 16.354C24.4213 16.406 24.456 16.4753 24.456 16.562V19.89C24.456 21.8833 23.8667 23.4347 22.688 24.544C21.5267 25.6533 19.958 26.208 17.982 26.208Z" fill="#303030"/>
</svg>
