<svg width="36" height="36" viewBox="0 0 36 36" fill="none" xmlns="http://www.w3.org/2000/svg">
<rect width="36" height="36" rx="10" fill="#303030"/>
<rect x="3.69232" y="1.84619" width="28.6154" height="28.6154" rx="10" fill="white"/>
<path d="M21.804 8.112C21.804 8.02533 21.83 7.956 21.882 7.904C21.9513 7.83467 22.0293 7.8 22.116 7.8H24.508C24.5947 7.8 24.664 7.83467 24.716 7.904C24.7853 7.956 24.82 8.02533 24.82 8.112V25.688C24.82 25.7747 24.7853 25.8527 24.716 25.922C24.664 25.974 24.5947 26 24.508 26H22.116C22.0293 26 21.9513 25.974 21.882 25.922C21.83 25.8527 21.804 25.7747 21.804 25.688V18.252C21.804 18.1653 21.7607 18.122 21.674 18.122H15.044C14.9573 18.122 14.914 18.1653 14.914 18.252V25.688C14.914 25.7747 14.8793 25.8527 14.81 25.922C14.758 25.974 14.6887 26 14.602 26H12.21C12.1233 26 12.0453 25.974 11.976 25.922C11.924 25.8527 11.898 25.7747 11.898 25.688V8.112C11.898 8.02533 11.924 7.956 11.976 7.904C12.0453 7.83467 12.1233 7.8 12.21 7.8H14.602C14.6887 7.8 14.758 7.83467 14.81 7.904C14.8793 7.956 14.914 8.02533 14.914 8.112V15.392C14.914 15.4787 14.9573 15.522 15.044 15.522H21.674C21.7607 15.522 21.804 15.4787 21.804 15.392V8.112Z" fill="#303030"/>
</svg>
