<svg width="36" height="36" viewBox="0 0 36 36" fill="none" xmlns="http://www.w3.org/2000/svg">
<rect width="36" height="36" rx="10" fill="#303030"/>
<rect x="3.69232" y="1.84619" width="28.6154" height="28.6154" rx="10" fill="white"/>
<path d="M16.89 26.208C15.6247 26.208 14.5153 25.974 13.562 25.506C12.6087 25.0207 11.872 24.3447 11.352 23.478C10.832 22.6113 10.572 21.606 10.572 20.462V18.72C10.572 18.6333 10.598 18.564 10.65 18.512C10.7193 18.4427 10.7973 18.408 10.884 18.408H13.276C13.3627 18.408 13.432 18.4427 13.484 18.512C13.5533 18.564 13.588 18.6333 13.588 18.72V20.462C13.588 21.398 13.8827 22.1607 14.472 22.75C15.0787 23.322 15.8847 23.608 16.89 23.608C17.8607 23.608 18.658 23.322 19.282 22.75C19.906 22.1607 20.218 21.398 20.218 20.462V8.112C20.218 8.02533 20.244 7.956 20.296 7.904C20.3653 7.83467 20.4433 7.8 20.53 7.8H22.896C22.9827 7.8 23.052 7.83467 23.104 7.904C23.1733 7.956 23.208 8.02533 23.208 8.112V20.462C23.208 21.606 22.9393 22.6113 22.402 23.478C21.882 24.3447 21.1367 25.0207 20.166 25.506C19.2127 25.974 18.1207 26.208 16.89 26.208Z" fill="#303030"/>
</svg>
