<svg width="36" height="36" viewBox="0 0 36 36" fill="none" xmlns="http://www.w3.org/2000/svg">
<rect width="36" height="36" rx="10" fill="#303030"/>
<rect x="3.69232" y="1.84619" width="28.6154" height="28.6154" rx="10" fill="white"/>
<path d="M26.8 14.2V16.6H9.2V14.2C9.2 13.8817 9.08411 13.5765 8.87782 13.3515C8.67153 13.1264 8.39174 13 8.1 13C7.80826 13 7.52847 13.1264 7.32218 13.3515C7.11589 13.5765 7 13.8817 7 14.2V16.6C7 17.2365 7.23178 17.847 7.64437 18.2971C8.05694 18.7471 8.61652 19 9.2 19H26.8C27.3835 19 27.9431 18.7471 28.3556 18.2971C28.7682 17.847 29 17.2365 29 16.6V14.2C29 13.8817 28.8841 13.5765 28.6778 13.3515C28.4715 13.1264 28.1917 13 27.9 13C27.6083 13 27.3285 13.1264 27.1222 13.3515C26.9159 13.5765 26.8 13.8817 26.8 14.2Z" fill="#303030"/>
</svg>
