<svg width="36" height="36" viewBox="0 0 36 36" fill="none" xmlns="http://www.w3.org/2000/svg">
<rect width="36" height="36" rx="10" fill="#303030"/>
<rect x="3.69226" y="1.84619" width="28.6154" height="28.6154" rx="10" fill="white"/>
<path d="M23.858 7.8C23.9447 7.8 24.014 7.83467 24.066 7.904C24.1353 7.956 24.17 8.02533 24.17 8.112V10.114C24.17 10.2007 24.1353 10.2787 24.066 10.348C24.014 10.4 23.9447 10.426 23.858 10.426H19.074C18.9873 10.426 18.944 10.4693 18.944 10.556V25.688C18.944 25.7747 18.9093 25.8527 18.84 25.922C18.788 25.974 18.7187 26 18.632 26H16.24C16.1533 26 16.0753 25.974 16.006 25.922C15.954 25.8527 15.928 25.7747 15.928 25.688V10.556C15.928 10.4693 15.8847 10.426 15.798 10.426H11.196C11.1093 10.426 11.0313 10.4 10.962 10.348C10.91 10.2787 10.884 10.2007 10.884 10.114V8.112C10.884 8.02533 10.91 7.956 10.962 7.904C11.0313 7.83467 11.1093 7.8 11.196 7.8H23.858Z" fill="#303030"/>
</svg>
