<svg width="36" height="36" viewBox="0 0 36 36" fill="none" xmlns="http://www.w3.org/2000/svg">
<rect width="36" height="36" rx="10" fill="#303030"/>
<rect x="3.69232" y="1.84619" width="28.6154" height="28.6154" rx="10" fill="white"/>
<path d="M18.268 26.208C16.9853 26.208 15.85 25.9567 14.862 25.454C13.874 24.9513 13.1027 24.2407 12.548 23.322C12.0107 22.386 11.742 21.3113 11.742 20.098V8.112C11.742 8.02533 11.768 7.956 11.82 7.904C11.8893 7.83467 11.9673 7.8 12.054 7.8H14.446C14.5327 7.8 14.602 7.83467 14.654 7.904C14.7233 7.956 14.758 8.02533 14.758 8.112V20.15C14.758 21.1727 15.0787 22.0047 15.72 22.646C16.3613 23.2873 17.2107 23.608 18.268 23.608C19.3253 23.608 20.1747 23.2873 20.816 22.646C21.4573 22.0047 21.778 21.1727 21.778 20.15V8.112C21.778 8.02533 21.804 7.956 21.856 7.904C21.9253 7.83467 22.0033 7.8 22.09 7.8H24.482C24.5687 7.8 24.638 7.83467 24.69 7.904C24.7593 7.956 24.794 8.02533 24.794 8.112V20.098C24.794 21.3113 24.5253 22.386 23.988 23.322C23.4507 24.2407 22.688 24.9513 21.7 25.454C20.712 25.9567 19.568 26.208 18.268 26.208Z" fill="#303030"/>
</svg>
