<svg width="36" height="36" viewBox="0 0 36 36" fill="none" xmlns="http://www.w3.org/2000/svg">
<rect width="36" height="36" rx="10" fill="#303030"/>
<rect x="3.69226" y="1.84619" width="28.6154" height="28.6154" rx="10" fill="white"/>
<path d="M17.604 26C17.4307 26 17.318 25.9133 17.266 25.74L11.806 8.164L11.78 8.06C11.78 7.88667 11.8753 7.8 12.066 7.8H14.64C14.8307 7.8 14.952 7.88667 15.004 8.06L18.904 21.632C18.9213 21.684 18.9473 21.71 18.982 21.71C19.0167 21.71 19.0427 21.684 19.06 21.632L22.934 8.06C22.986 7.88667 23.1073 7.8 23.298 7.8H25.82C25.924 7.8 26.002 7.83467 26.054 7.904C26.106 7.97333 26.1147 8.06 26.08 8.164L20.542 25.74C20.49 25.9133 20.3773 26 20.204 26H17.604Z" fill="#303030"/>
</svg>
