<svg width="36" height="36" viewBox="0 0 36 36" fill="none" xmlns="http://www.w3.org/2000/svg">
<rect width="36" height="36" rx="10" fill="#303030"/>
<rect x="3.69232" y="1.84619" width="28.6154" height="28.6154" rx="10" fill="white"/>
<path d="M16.578 25.974C16.4913 25.974 16.4133 25.948 16.344 25.896C16.292 25.8267 16.266 25.7487 16.266 25.662V18.694C16.266 18.6247 16.2573 18.5727 16.24 18.538L10.884 8.164C10.8493 8.09467 10.832 8.04267 10.832 8.008C10.832 7.86933 10.9273 7.8 11.118 7.8H13.692C13.8653 7.8 13.9867 7.878 14.056 8.034L17.696 15.288C17.748 15.3573 17.8 15.3573 17.852 15.288L21.518 8.034C21.6047 7.878 21.726 7.8 21.882 7.8H24.482C24.6033 7.8 24.6813 7.83467 24.716 7.904C24.768 7.97333 24.768 8.06 24.716 8.164L19.334 18.538C19.2993 18.6073 19.282 18.6593 19.282 18.694V25.662C19.282 25.7487 19.2473 25.8267 19.178 25.896C19.126 25.948 19.0567 25.974 18.97 25.974H16.578Z" fill="#303030"/>
</svg>
